<svg id="svg" version="1.1" xmlns="http://www.w3.org/2000/svg" xmlns:xlink="http://www.w3.org/1999/xlink" width="400" height="400" viewBox="0, 0, 400,400"><g id="svgg"><path id="path0" d="M330.500 0.274 C 329.565 0.368,328.800 0.616,328.800 0.823 C 328.800 1.030,328.361 1.200,327.824 1.200 C 327.287 1.200,326.736 1.380,326.600 1.600 C 326.464 1.820,326.003 2.000,325.576 2.000 C 325.149 2.000,324.800 2.180,324.800 2.400 C 324.800 2.620,324.361 2.800,323.824 2.800 C 323.287 2.800,322.736 2.980,322.600 3.200 C 322.464 3.420,322.003 3.600,321.576 3.600 C 321.149 3.600,320.800 3.780,320.800 4.000 C 320.800 4.220,320.440 4.400,320.000 4.400 C 319.560 4.400,319.200 4.580,319.200 4.800 C 319.200 5.020,318.880 5.200,318.488 5.200 C 318.097 5.200,317.517 5.560,317.200 6.000 C 316.883 6.440,316.303 6.800,315.912 6.800 C 315.520 6.800,315.200 6.980,315.200 7.200 C 315.200 7.420,315.023 7.600,314.808 7.600 C 314.592 7.600,313.398 8.275,312.154 9.100 C 310.910 9.925,309.607 10.780,309.258 11.000 C 308.910 11.220,308.142 11.895,307.552 12.500 C 306.962 13.105,306.303 13.600,306.088 13.600 C 305.531 13.600,302.400 16.707,302.400 17.260 C 302.400 17.513,300.104 20.079,297.298 22.960 C 289.387 31.085,280.228 42.171,274.792 50.200 C 274.047 51.300,273.204 52.438,272.919 52.729 C 272.634 53.019,272.400 53.411,272.400 53.600 C 272.400 53.789,272.174 54.181,271.897 54.471 C 270.579 55.857,258.800 74.721,258.800 75.448 C 258.800 75.574,258.468 76.154,258.062 76.738 C 257.361 77.746,256.458 79.359,252.991 85.800 C 251.405 88.746,244.000 103.548,244.000 103.773 C 244.000 103.845,243.128 105.770,242.062 108.052 C 239.301 113.963,238.400 115.964,238.400 116.184 C 238.400 116.290,237.966 117.327,237.436 118.488 C 236.185 121.230,231.115 133.933,229.774 137.686 C 227.683 143.540,223.892 154.632,223.583 155.800 C 223.409 156.460,222.876 158.260,222.400 159.800 C 220.687 165.340,217.865 176.056,216.818 181.000 C 216.539 182.320,216.181 183.849,216.023 184.397 C 215.754 185.330,216.233 186.875,218.193 191.400 C 221.400 198.805,226.905 218.121,226.261 219.711 C 226.152 219.980,226.049 219.705,226.032 219.100 C 226.014 218.495,225.853 218.000,225.674 218.000 C 225.494 218.000,224.930 216.965,224.421 215.700 C 223.353 213.048,218.939 204.492,216.101 199.571 C 215.032 197.717,214.032 195.870,213.879 195.467 C 213.160 193.578,212.502 195.124,208.223 208.756 L 206.793 213.311 208.375 216.756 C 211.119 222.727,214.233 231.554,216.188 238.900 C 216.525 240.165,217.078 242.228,217.417 243.484 C 218.160 246.235,218.024 248.161,217.231 246.117 C 215.682 242.122,205.207 222.830,204.577 222.812 C 203.931 222.794,201.319 233.876,200.370 240.663 C 199.928 243.821,200.194 246.003,201.189 247.400 C 203.570 250.741,208.749 269.405,212.176 287.000 C 213.781 295.235,213.925 296.027,214.406 299.200 C 214.657 300.850,215.059 303.010,215.301 304.000 C 215.586 305.169,215.712 310.712,215.661 319.800 C 215.614 328.005,215.822 338.270,216.164 344.600 C 216.526 351.298,216.606 355.544,216.374 355.780 C 215.872 356.290,215.894 359.600,216.400 359.600 C 216.638 359.600,216.800 361.125,216.800 363.376 C 216.800 365.463,216.979 367.263,217.200 367.400 C 217.420 367.536,217.600 368.886,217.600 370.400 C 217.600 371.914,217.780 373.264,218.000 373.400 C 218.220 373.536,218.400 374.717,218.400 376.024 C 218.400 377.341,218.578 378.400,218.800 378.400 C 219.022 378.400,219.200 379.467,219.200 380.800 C 219.200 382.133,219.378 383.200,219.600 383.200 C 219.820 383.200,220.000 384.100,220.000 385.200 C 220.000 386.300,220.180 387.200,220.400 387.200 C 220.620 387.200,220.800 387.920,220.800 388.800 C 220.800 389.680,220.980 390.400,221.200 390.400 C 221.420 390.400,221.600 391.030,221.600 391.800 C 221.600 392.570,221.780 393.200,222.000 393.200 C 222.220 393.200,222.400 393.819,222.400 394.576 C 222.400 395.333,222.580 396.064,222.800 396.200 C 223.020 396.336,223.200 396.987,223.200 397.647 C 223.200 398.345,223.367 398.744,223.600 398.600 C 223.820 398.464,224.000 398.723,224.000 399.176 C 224.000 399.908,224.246 400.000,226.200 400.000 L 228.400 400.000 228.400 398.600 C 228.400 397.830,228.220 397.200,228.000 397.200 C 227.780 397.200,227.600 396.581,227.600 395.824 C 227.600 395.067,227.420 394.336,227.200 394.200 C 226.980 394.064,226.800 393.333,226.800 392.576 C 226.800 391.819,226.620 391.200,226.400 391.200 C 226.180 391.200,226.000 390.480,226.000 389.600 C 226.000 388.720,225.846 388.000,225.658 388.000 C 225.469 388.000,225.198 386.601,225.056 384.891 C 224.913 383.181,224.617 381.158,224.398 380.394 C 224.179 379.630,224.000 378.160,224.000 377.126 C 224.000 376.093,223.820 375.136,223.600 375.000 C 223.380 374.864,223.200 373.402,223.200 371.750 C 223.200 370.099,223.030 368.430,222.822 368.041 C 222.614 367.653,222.415 365.190,222.379 362.568 C 222.343 359.945,222.148 357.596,221.946 357.346 C 221.498 356.793,221.794 334.057,222.368 325.000 C 222.920 316.285,223.703 307.901,224.759 299.400 C 224.978 297.640,225.167 295.165,225.178 293.900 C 225.190 292.635,225.380 291.600,225.600 291.600 C 225.826 291.600,226.000 290.467,226.000 289.000 C 226.000 287.533,226.174 286.400,226.400 286.400 C 226.622 286.400,226.800 285.333,226.800 284.000 C 226.800 282.667,226.978 281.600,227.200 281.600 C 227.420 281.600,227.600 280.621,227.600 279.424 C 227.600 278.227,227.780 277.136,228.000 277.000 C 228.220 276.864,228.400 275.964,228.400 275.000 C 228.400 274.036,228.580 273.136,228.800 273.000 C 229.020 272.864,229.200 271.953,229.200 270.976 C 229.200 269.999,229.380 269.200,229.600 269.200 C 229.820 269.200,230.000 268.300,230.000 267.200 C 230.000 266.100,230.180 265.200,230.400 265.200 C 230.620 265.200,230.800 264.300,230.800 263.200 C 230.800 262.100,230.980 261.200,231.200 261.200 C 231.420 261.200,231.600 260.390,231.600 259.400 C 231.600 258.410,231.780 257.600,232.000 257.600 C 232.220 257.600,232.400 256.891,232.400 256.024 C 232.400 255.157,232.580 254.336,232.800 254.200 C 233.020 254.064,233.200 253.153,233.200 252.176 C 233.200 251.199,233.380 250.400,233.600 250.400 C 233.820 250.400,234.000 249.680,234.000 248.800 C 234.000 247.920,234.180 247.200,234.400 247.200 C 234.620 247.200,234.800 246.480,234.800 245.600 C 234.800 244.720,234.980 244.000,235.200 244.000 C 235.420 244.000,235.600 243.280,235.600 242.400 C 235.600 241.520,235.780 240.800,236.000 240.800 C 236.220 240.800,236.400 240.170,236.400 239.400 C 236.400 238.630,236.580 238.000,236.800 238.000 C 237.020 238.000,237.200 237.280,237.200 236.400 C 237.200 235.520,237.360 234.800,237.556 234.800 C 237.893 234.800,238.010 234.351,238.632 230.700 C 238.773 229.875,239.048 229.200,239.244 229.200 C 239.440 229.200,239.600 228.581,239.600 227.824 C 239.600 227.067,239.760 226.348,239.956 226.227 C 240.151 226.106,240.415 225.421,240.541 224.704 C 241.279 220.501,241.791 218.400,242.076 218.400 C 242.254 218.400,242.400 217.860,242.400 217.200 C 242.400 216.540,242.580 216.000,242.800 216.000 C 243.020 216.000,243.200 215.280,243.200 214.400 C 243.200 213.520,243.380 212.800,243.600 212.800 C 243.820 212.800,244.000 212.260,244.000 211.600 C 244.000 210.940,244.180 210.400,244.400 210.400 C 244.620 210.400,244.800 209.860,244.800 209.200 C 244.800 208.540,244.980 208.000,245.200 208.000 C 245.420 208.000,245.600 207.460,245.600 206.800 C 245.600 206.140,245.780 205.600,246.000 205.600 C 246.220 205.600,246.400 205.161,246.400 204.624 C 246.400 204.087,246.580 203.536,246.800 203.400 C 247.020 203.264,247.200 202.724,247.200 202.200 C 247.200 201.676,247.380 201.136,247.600 201.000 C 247.820 200.864,248.000 200.324,248.000 199.800 C 248.000 199.276,248.180 198.736,248.400 198.600 C 248.620 198.464,248.800 197.924,248.800 197.400 C 248.800 196.876,248.980 196.336,249.200 196.200 C 249.420 196.064,249.600 195.524,249.600 195.000 C 249.600 194.476,249.780 193.936,250.000 193.800 C 250.220 193.664,250.400 193.113,250.400 192.576 C 250.400 192.039,250.580 191.600,250.800 191.600 C 251.020 191.600,251.200 191.240,251.200 190.800 C 251.200 190.360,251.380 190.000,251.600 190.000 C 251.820 190.000,252.000 189.550,252.000 189.000 C 252.000 188.450,252.180 188.000,252.400 188.000 C 252.620 188.000,252.800 187.561,252.800 187.024 C 252.800 186.487,252.980 185.936,253.200 185.800 C 253.420 185.664,253.600 185.203,253.600 184.776 C 253.600 184.349,253.780 184.000,254.000 184.000 C 254.220 184.000,254.400 183.561,254.400 183.024 C 254.400 182.487,254.580 181.936,254.800 181.800 C 255.020 181.664,255.200 181.203,255.200 180.776 C 255.200 180.349,255.347 180.000,255.528 180.000 C 255.708 180.000,256.100 179.100,256.400 178.000 C 256.700 176.900,257.092 176.000,257.272 176.000 C 257.453 176.000,257.601 175.685,257.602 175.300 C 257.604 174.915,257.874 174.084,258.202 173.454 C 258.531 172.824,258.800 171.969,258.800 171.554 C 258.800 171.139,258.980 170.800,259.200 170.800 C 259.420 170.800,259.600 170.440,259.600 170.000 C 259.600 169.560,259.780 169.200,260.000 169.200 C 260.220 169.200,260.400 168.660,260.400 168.000 C 260.400 167.340,260.580 166.800,260.800 166.800 C 261.020 166.800,261.200 166.440,261.200 166.000 C 261.200 165.560,261.380 165.200,261.600 165.200 C 261.820 165.200,262.000 164.840,262.000 164.400 C 262.000 163.960,262.180 163.600,262.400 163.600 C 262.620 163.600,262.800 163.240,262.800 162.800 C 262.800 162.360,262.980 162.000,263.200 162.000 C 263.420 162.000,263.600 161.561,263.600 161.024 C 263.600 160.487,263.780 159.936,264.000 159.800 C 264.220 159.664,264.400 159.218,264.400 158.810 C 264.400 158.401,264.536 158.007,264.702 157.933 C 264.868 157.860,265.608 156.540,266.347 155.000 C 267.086 153.460,268.031 151.508,268.446 150.662 C 268.861 149.816,269.200 148.871,269.200 148.562 C 269.200 148.253,269.380 148.000,269.600 148.000 C 269.820 148.000,270.000 147.640,270.000 147.200 C 270.000 146.760,270.180 146.400,270.400 146.400 C 270.620 146.400,270.800 146.040,270.800 145.600 C 270.800 145.160,270.980 144.800,271.200 144.800 C 271.420 144.800,271.600 144.440,271.600 144.000 C 271.600 143.560,271.780 143.200,272.000 143.200 C 272.220 143.200,272.400 142.855,272.400 142.433 C 272.400 142.012,272.542 141.607,272.716 141.533 C 273.143 141.353,275.200 136.928,275.200 136.189 C 275.200 135.865,275.380 135.600,275.600 135.600 C 275.820 135.600,276.000 135.240,276.000 134.800 C 276.000 134.360,276.180 134.000,276.400 134.000 C 276.620 134.000,276.800 133.640,276.800 133.200 C 276.800 132.760,276.980 132.400,277.200 132.400 C 277.420 132.400,277.600 132.040,277.600 131.600 C 277.600 131.160,277.780 130.800,278.000 130.800 C 278.220 130.800,278.400 130.440,278.400 130.000 C 278.400 129.560,278.580 129.200,278.800 129.200 C 279.020 129.200,279.200 128.922,279.200 128.583 C 279.200 128.244,279.560 127.580,280.000 127.108 C 280.440 126.636,280.800 126.013,280.800 125.725 C 280.800 125.436,280.946 125.200,281.125 125.200 C 281.304 125.200,281.698 124.570,282.000 123.800 C 282.302 123.030,282.696 122.400,282.875 122.400 C 283.054 122.400,283.200 122.040,283.200 121.600 C 283.200 121.160,283.380 120.800,283.600 120.800 C 283.820 120.800,284.000 120.455,284.000 120.033 C 284.000 119.612,284.135 119.207,284.300 119.133 C 284.676 118.966,285.975 116.836,286.271 115.900 C 286.393 115.515,286.652 115.200,286.847 115.200 C 287.041 115.200,287.200 114.840,287.200 114.400 C 287.200 113.960,287.380 113.600,287.600 113.600 C 287.820 113.600,288.000 113.322,288.000 112.983 C 288.000 112.644,288.360 111.980,288.800 111.508 C 289.240 111.036,289.600 110.413,289.600 110.125 C 289.600 109.836,289.780 109.600,290.000 109.600 C 290.220 109.600,290.400 109.240,290.400 108.800 C 290.400 108.360,290.566 108.000,290.768 108.000 C 290.971 108.000,291.255 107.458,291.401 106.797 C 291.546 106.135,291.830 105.695,292.033 105.820 C 292.235 105.945,292.400 105.677,292.400 105.224 C 292.400 104.771,292.558 104.400,292.751 104.400 C 292.945 104.400,293.327 103.860,293.600 103.200 C 293.873 102.540,294.255 102.000,294.449 102.000 C 294.642 102.000,294.800 101.680,294.800 101.288 C 294.800 100.897,295.160 100.317,295.600 100.000 C 296.040 99.683,296.400 99.186,296.400 98.895 C 296.400 98.604,296.760 97.980,297.200 97.508 C 297.640 97.036,298.000 96.413,298.000 96.125 C 298.000 95.836,298.180 95.600,298.400 95.600 C 298.620 95.600,298.800 95.280,298.800 94.888 C 298.800 94.497,299.160 93.917,299.600 93.600 C 300.040 93.283,300.400 92.743,300.400 92.400 C 300.400 92.057,300.760 91.517,301.200 91.200 C 301.640 90.883,302.000 90.476,302.000 90.295 C 302.000 90.114,302.360 89.580,302.800 89.108 C 303.240 88.636,303.600 88.013,303.600 87.725 C 303.600 87.436,303.758 87.200,303.951 87.200 C 304.145 87.200,304.527 86.660,304.800 86.000 C 305.073 85.340,305.433 84.800,305.600 84.800 C 305.767 84.800,306.127 84.260,306.400 83.600 C 306.673 82.940,307.038 82.400,307.209 82.400 C 307.381 82.400,307.701 81.887,307.919 81.260 C 308.138 80.633,308.785 79.651,309.358 79.078 C 309.931 78.505,310.400 77.798,310.400 77.506 C 310.400 77.215,310.760 76.717,311.200 76.400 C 311.640 76.083,312.001 75.638,312.002 75.412 C 312.003 75.185,312.543 74.425,313.202 73.722 C 313.861 73.019,314.400 72.342,314.400 72.218 C 314.400 72.094,314.940 71.428,315.600 70.737 C 316.260 70.046,316.800 69.326,316.800 69.137 C 316.800 68.948,317.340 68.228,318.000 67.537 C 318.660 66.846,319.200 66.128,319.200 65.941 C 319.200 65.754,319.920 64.859,320.800 63.952 C 321.680 63.045,322.400 62.137,322.400 61.934 C 322.400 61.730,322.805 61.130,323.300 60.601 C 324.616 59.194,325.200 58.462,325.200 58.220 C 325.200 58.102,326.460 56.731,328.000 55.172 C 329.540 53.614,330.800 52.170,330.800 51.963 C 330.800 51.451,336.808 45.475,337.064 45.731 C 337.177 45.843,336.713 46.517,336.034 47.227 C 335.355 47.937,334.800 48.722,334.800 48.971 C 334.800 49.220,334.440 49.683,334.000 50.000 C 333.560 50.317,333.200 50.762,333.199 50.988 C 333.199 51.215,332.659 52.030,332.000 52.800 C 331.341 53.570,330.801 54.385,330.801 54.612 C 330.800 54.838,330.440 55.283,330.000 55.600 C 329.560 55.917,329.200 56.482,329.200 56.855 C 329.200 57.228,329.042 57.593,328.850 57.667 C 328.383 57.844,324.800 63.421,324.800 63.970 C 324.800 64.207,324.620 64.400,324.400 64.400 C 324.180 64.400,324.000 64.720,324.000 65.112 C 324.000 65.503,323.640 66.083,323.200 66.400 C 322.760 66.717,322.400 67.257,322.400 67.600 C 322.400 67.943,322.040 68.483,321.600 68.800 C 321.160 69.117,320.800 69.697,320.800 70.088 C 320.800 70.480,320.620 70.800,320.400 70.800 C 320.180 70.800,320.000 71.036,320.000 71.325 C 320.000 71.613,319.640 72.236,319.200 72.708 C 318.760 73.180,318.400 73.844,318.400 74.183 C 318.400 74.522,318.220 74.800,318.000 74.800 C 317.780 74.800,317.600 75.070,317.600 75.400 C 317.600 75.730,317.420 76.000,317.200 76.000 C 316.980 76.000,316.800 76.270,316.800 76.600 C 316.800 76.930,316.620 77.200,316.400 77.200 C 316.180 77.200,316.000 77.470,316.000 77.800 C 316.000 78.130,315.820 78.400,315.600 78.400 C 315.380 78.400,315.200 78.678,315.200 79.017 C 315.200 79.356,314.840 80.020,314.400 80.492 C 313.960 80.964,313.600 81.587,313.600 81.875 C 313.600 82.164,313.420 82.400,313.200 82.400 C 312.980 82.400,312.800 82.760,312.800 83.200 C 312.800 83.640,312.620 84.000,312.400 84.000 C 312.180 84.000,312.000 84.360,312.000 84.800 C 312.000 85.240,311.857 85.600,311.681 85.600 C 311.506 85.600,310.660 86.995,309.803 88.700 C 308.945 90.405,308.129 91.890,307.989 92.000 C 307.850 92.110,307.481 92.785,307.170 93.500 C 306.859 94.215,306.469 94.800,306.302 94.800 C 306.136 94.800,306.000 95.160,306.000 95.600 C 306.000 96.040,305.820 96.400,305.600 96.400 C 305.380 96.400,305.200 96.760,305.200 97.200 C 305.200 97.640,305.020 98.000,304.800 98.000 C 304.580 98.000,304.400 98.360,304.400 98.800 C 304.400 99.240,304.220 99.600,304.000 99.600 C 303.780 99.600,303.600 99.971,303.600 100.424 C 303.600 100.877,303.420 101.136,303.200 101.000 C 302.980 100.864,302.800 101.033,302.800 101.376 C 302.800 101.719,302.620 102.000,302.400 102.000 C 302.180 102.000,302.000 102.360,302.000 102.800 C 302.000 103.240,301.820 103.600,301.600 103.600 C 301.380 103.600,301.200 103.960,301.200 104.400 C 301.200 104.840,301.020 105.200,300.800 105.200 C 300.580 105.200,300.400 105.560,300.400 106.000 C 300.400 106.440,300.220 106.800,300.000 106.800 C 299.780 106.800,299.600 107.160,299.600 107.600 C 299.600 108.040,299.454 108.400,299.275 108.400 C 299.096 108.400,298.702 109.030,298.400 109.800 C 298.098 110.570,297.704 111.200,297.525 111.200 C 297.346 111.200,297.200 111.560,297.200 112.000 C 297.200 112.440,297.020 112.800,296.800 112.800 C 296.580 112.800,296.400 113.160,296.400 113.600 C 296.400 114.040,296.220 114.400,296.000 114.400 C 295.780 114.400,295.600 114.760,295.600 115.200 C 295.600 115.640,295.420 116.000,295.200 116.000 C 294.980 116.000,294.800 116.345,294.800 116.767 C 294.800 117.188,294.658 117.593,294.485 117.667 C 294.028 117.861,292.000 122.163,292.000 122.940 C 292.000 123.303,291.820 123.600,291.600 123.600 C 291.380 123.600,291.200 123.960,291.200 124.400 C 291.200 124.840,291.020 125.200,290.800 125.200 C 290.580 125.200,290.400 125.560,290.400 126.000 C 290.400 126.440,290.220 126.800,290.000 126.800 C 289.780 126.800,289.600 127.160,289.600 127.600 C 289.600 128.040,289.420 128.400,289.200 128.400 C 288.980 128.400,288.800 128.760,288.800 129.200 C 288.800 129.640,288.620 130.000,288.400 130.000 C 288.180 130.000,288.000 130.360,288.000 130.800 C 288.000 131.240,287.820 131.600,287.600 131.600 C 287.380 131.600,287.200 131.960,287.200 132.400 C 287.200 132.840,287.020 133.200,286.800 133.200 C 286.580 133.200,286.400 133.560,286.400 134.000 C 286.400 134.440,286.220 134.800,286.000 134.800 C 285.780 134.800,285.600 135.160,285.600 135.600 C 285.600 136.040,285.420 136.400,285.200 136.400 C 284.980 136.400,284.800 136.760,284.800 137.200 C 284.800 137.640,284.620 138.000,284.400 138.000 C 284.180 138.000,284.000 138.360,284.000 138.800 C 284.000 139.240,283.820 139.600,283.600 139.600 C 283.380 139.600,283.200 139.960,283.200 140.400 C 283.200 140.840,283.020 141.200,282.800 141.200 C 282.580 141.200,282.400 141.560,282.400 142.000 C 282.400 142.440,282.220 142.800,282.000 142.800 C 281.780 142.800,281.600 143.149,281.600 143.576 C 281.600 144.003,281.420 144.464,281.200 144.600 C 280.980 144.736,280.800 145.197,280.800 145.624 C 280.800 146.051,280.620 146.400,280.400 146.400 C 280.180 146.400,280.000 146.760,280.000 147.200 C 280.000 147.640,279.820 148.000,279.600 148.000 C 279.380 148.000,279.200 148.360,279.200 148.800 C 279.200 149.240,279.020 149.600,278.800 149.600 C 278.580 149.600,278.400 149.842,278.400 150.139 C 278.400 150.435,278.150 151.200,277.844 151.839 C 277.538 152.477,276.976 153.720,276.596 154.600 C 276.216 155.480,275.656 156.767,275.353 157.460 C 275.049 158.154,274.800 159.009,274.800 159.360 C 274.800 159.712,274.620 160.000,274.400 160.000 C 274.180 160.000,274.000 160.461,274.000 161.024 C 274.000 161.604,273.827 161.940,273.600 161.800 C 273.373 161.660,273.200 161.996,273.200 162.576 C 273.200 163.139,273.020 163.600,272.800 163.600 C 272.580 163.600,272.400 163.960,272.400 164.400 C 272.400 164.840,272.220 165.200,272.000 165.200 C 271.780 165.200,271.600 165.560,271.600 166.000 C 271.600 166.440,271.420 166.800,271.200 166.800 C 270.980 166.800,270.800 167.340,270.800 168.000 C 270.800 168.660,270.620 169.200,270.400 169.200 C 270.180 169.200,270.000 169.560,270.000 170.000 C 270.000 170.440,269.820 170.800,269.600 170.800 C 269.380 170.800,269.200 171.160,269.200 171.600 C 269.200 172.040,269.020 172.400,268.800 172.400 C 268.580 172.400,268.400 172.940,268.400 173.600 C 268.400 174.260,268.220 174.800,268.000 174.800 C 267.780 174.800,267.600 175.160,267.600 175.600 C 267.600 176.040,267.420 176.400,267.200 176.400 C 266.980 176.400,266.800 176.850,266.800 177.400 C 266.800 177.950,266.620 178.400,266.400 178.400 C 266.180 178.400,266.000 178.760,266.000 179.200 C 266.000 179.640,265.820 180.000,265.600 180.000 C 265.380 180.000,265.200 180.349,265.200 180.776 C 265.200 181.203,265.020 181.664,264.800 181.800 C 264.580 181.936,264.400 182.487,264.400 183.024 C 264.400 183.561,264.220 184.000,264.000 184.000 C 263.780 184.000,263.600 184.439,263.600 184.976 C 263.600 185.513,263.420 186.064,263.200 186.200 C 262.980 186.336,262.800 186.797,262.800 187.224 C 262.800 187.651,262.620 188.000,262.400 188.000 C 262.180 188.000,262.000 188.540,262.000 189.200 C 262.000 189.860,261.820 190.400,261.600 190.400 C 261.380 190.400,261.200 190.814,261.200 191.320 C 261.200 191.826,261.036 192.411,260.835 192.620 C 260.333 193.142,258.400 199.027,258.400 200.032 C 258.400 200.480,258.220 200.736,258.000 200.600 C 257.767 200.456,257.600 200.863,257.600 201.576 C 257.600 202.249,257.420 202.800,257.200 202.800 C 256.980 202.800,256.800 203.340,256.800 204.000 C 256.800 204.660,256.620 205.200,256.400 205.200 C 256.180 205.200,256.000 205.740,256.000 206.400 C 256.000 207.060,255.820 207.600,255.600 207.600 C 255.380 207.600,255.200 208.050,255.200 208.600 C 255.200 209.150,255.020 209.600,254.800 209.600 C 254.580 209.600,254.400 210.140,254.400 210.800 C 254.400 211.460,254.220 212.000,254.000 212.000 C 253.780 212.000,253.600 212.362,253.600 212.805 C 253.600 213.248,253.420 213.968,253.200 214.405 C 252.980 214.842,252.620 215.558,252.400 215.995 C 252.180 216.432,252.000 217.141,252.000 217.571 C 252.000 218.001,251.820 218.464,251.600 218.600 C 251.380 218.736,251.200 219.387,251.200 220.047 C 251.200 220.745,251.033 221.144,250.800 221.000 C 250.465 220.793,250.172 222.558,250.353 223.700 C 250.379 223.865,250.220 224.000,250.000 224.000 C 249.780 224.000,249.600 224.439,249.600 224.976 C 249.600 225.513,249.420 226.064,249.200 226.200 C 248.980 226.336,248.800 226.887,248.800 227.424 C 248.800 227.961,248.620 228.400,248.400 228.400 C 248.180 228.400,248.000 228.940,248.000 229.600 C 248.000 230.260,247.820 230.800,247.600 230.800 C 247.380 230.800,247.200 231.340,247.200 232.000 C 247.200 232.660,247.020 233.200,246.800 233.200 C 246.580 233.200,246.400 233.729,246.400 234.376 C 246.400 235.023,246.220 235.664,246.000 235.800 C 245.780 235.936,245.600 236.667,245.600 237.424 C 245.600 238.181,245.420 238.800,245.200 238.800 C 244.980 238.800,244.800 239.340,244.800 240.000 C 244.800 240.660,244.640 241.200,244.444 241.200 C 244.248 241.200,243.995 241.785,243.881 242.500 C 243.767 243.215,243.462 244.520,243.203 245.400 C 242.263 248.586,241.506 251.835,241.315 253.500 C 241.207 254.435,240.958 255.200,240.760 255.200 C 240.562 255.200,240.400 255.740,240.400 256.400 C 240.400 257.060,240.220 257.600,240.000 257.600 C 239.780 257.600,239.600 258.219,239.600 258.976 C 239.600 259.733,239.420 260.464,239.200 260.600 C 238.980 260.736,238.800 261.467,238.800 262.224 C 238.800 262.981,238.620 263.600,238.400 263.600 C 238.180 263.600,238.000 264.320,238.000 265.200 C 238.000 266.080,237.820 266.800,237.600 266.800 C 237.380 266.800,237.200 267.520,237.200 268.400 C 237.200 269.280,237.020 270.000,236.800 270.000 C 236.580 270.000,236.400 270.720,236.400 271.600 C 236.400 272.480,236.220 273.200,236.000 273.200 C 235.780 273.200,235.600 273.920,235.600 274.800 C 235.600 275.680,235.420 276.400,235.200 276.400 C 234.980 276.400,234.800 277.109,234.800 277.976 C 234.800 278.843,234.620 279.664,234.400 279.800 C 234.180 279.936,234.000 280.757,234.000 281.624 C 234.000 282.491,233.820 283.200,233.600 283.200 C 233.380 283.200,233.200 284.100,233.200 285.200 C 233.200 286.300,233.020 287.200,232.800 287.200 C 232.580 287.200,232.400 287.920,232.400 288.800 C 232.400 289.680,232.220 290.400,232.000 290.400 C 231.780 290.400,231.600 291.300,231.600 292.400 C 231.600 293.500,231.420 294.400,231.200 294.400 C 230.980 294.400,230.800 295.289,230.800 296.376 C 230.800 297.463,230.620 298.464,230.400 298.600 C 230.180 298.736,230.000 299.737,230.000 300.824 C 230.000 301.911,229.820 302.800,229.600 302.800 C 229.072 302.800,229.082 305.880,229.611 306.207 C 230.181 306.559,231.570 304.795,231.587 303.700 C 231.594 303.205,231.780 302.800,232.000 302.800 C 232.220 302.800,232.400 302.528,232.400 302.195 C 232.400 301.862,232.580 301.232,232.800 300.795 C 233.020 300.358,233.380 299.642,233.600 299.205 C 233.820 298.768,234.000 298.138,234.000 297.805 C 234.000 297.472,234.135 297.197,234.300 297.194 C 234.465 297.190,235.040 296.290,235.579 295.194 C 236.117 294.097,236.702 293.200,236.879 293.200 C 237.055 293.200,237.200 292.855,237.200 292.433 C 237.200 292.012,237.347 291.607,237.528 291.533 C 237.708 291.460,238.602 290.294,239.514 288.943 C 240.426 287.591,241.448 286.209,241.786 285.871 C 242.124 285.533,242.400 285.057,242.400 284.813 C 242.400 284.569,244.008 282.775,245.974 280.826 C 247.940 278.876,249.440 277.173,249.308 277.041 C 249.175 276.908,249.239 276.800,249.449 276.800 C 249.660 276.800,250.635 276.066,251.616 275.169 C 252.597 274.273,254.100 272.968,254.955 272.269 C 255.811 271.571,257.110 270.415,257.842 269.700 C 258.574 268.985,259.410 268.400,259.698 268.400 C 259.987 268.400,260.483 268.040,260.800 267.600 C 261.117 267.160,261.573 266.800,261.813 266.800 C 262.053 266.800,262.598 266.485,263.025 266.100 C 263.451 265.715,264.295 265.145,264.900 264.832 C 265.505 264.520,266.000 264.115,266.000 263.932 C 266.000 263.750,266.278 263.600,266.617 263.600 C 266.956 263.600,267.620 263.240,268.092 262.800 C 268.564 262.360,269.187 262.000,269.475 262.000 C 269.764 262.000,270.000 261.820,270.000 261.600 C 270.000 261.380,270.360 261.200,270.800 261.200 C 271.240 261.200,271.600 261.020,271.600 260.800 C 271.600 260.580,271.960 260.400,272.400 260.400 C 272.840 260.400,273.200 260.220,273.200 260.000 C 273.200 259.780,273.470 259.600,273.800 259.600 C 274.130 259.600,274.400 259.420,274.400 259.200 C 274.400 258.980,274.649 258.800,274.954 258.800 C 276.153 258.800,279.200 256.631,279.200 255.777 C 279.200 255.636,279.740 255.017,280.400 254.400 C 281.060 253.783,281.600 253.081,281.600 252.840 C 281.600 252.598,282.320 251.659,283.200 250.752 C 284.080 249.845,284.800 248.927,284.800 248.712 C 284.800 248.497,285.340 247.817,286.000 247.200 C 286.660 246.583,287.200 245.880,287.200 245.636 C 287.200 245.392,287.740 244.628,288.400 243.937 C 289.060 243.246,289.600 242.520,289.600 242.323 C 289.600 242.126,290.050 241.480,290.600 240.887 C 291.150 240.293,291.600 239.654,291.600 239.465 C 291.600 239.276,292.140 238.617,292.800 238.000 C 293.460 237.383,294.000 236.680,294.000 236.436 C 294.000 236.192,294.540 235.428,295.200 234.737 C 295.860 234.046,296.400 233.278,296.400 233.029 C 296.400 232.780,296.760 232.317,297.200 232.000 C 297.640 231.683,298.000 231.175,298.000 230.872 C 298.000 230.569,298.540 229.817,299.200 229.200 C 299.860 228.583,300.400 227.831,300.400 227.528 C 300.400 227.225,300.760 226.717,301.200 226.400 C 301.640 226.083,302.000 225.664,302.000 225.469 C 302.000 225.275,302.405 224.607,302.900 223.985 C 303.395 223.364,304.250 222.208,304.800 221.417 C 305.350 220.626,306.095 219.620,306.456 219.180 C 306.816 218.740,307.333 217.844,307.604 217.190 C 307.875 216.535,308.255 216.000,308.449 216.000 C 308.642 216.000,308.800 215.680,308.800 215.288 C 308.800 214.897,309.160 214.317,309.600 214.000 C 310.040 213.683,310.400 213.227,310.400 212.987 C 310.400 212.747,310.715 212.202,311.100 211.775 C 311.485 211.349,312.055 210.505,312.368 209.900 C 312.680 209.295,313.085 208.800,313.268 208.800 C 313.450 208.800,313.600 208.596,313.600 208.347 C 313.600 208.098,313.915 207.601,314.300 207.243 C 315.201 206.404,316.000 204.977,316.000 204.205 C 316.000 203.513,313.808 203.340,313.400 204.000 C 313.264 204.220,312.533 204.400,311.776 204.400 C 311.019 204.400,310.400 204.580,310.400 204.800 C 310.400 205.020,309.770 205.200,309.000 205.200 C 308.230 205.200,307.600 205.380,307.600 205.600 C 307.600 205.820,306.880 206.000,306.000 206.000 C 305.120 206.000,304.400 206.180,304.400 206.400 C 304.400 206.620,303.860 206.800,303.200 206.800 C 302.540 206.800,302.000 206.980,302.000 207.200 C 302.000 207.420,301.280 207.600,300.400 207.600 C 299.520 207.600,298.800 207.754,298.800 207.943 C 298.800 208.132,297.712 208.400,296.382 208.539 C 295.051 208.678,293.623 208.973,293.208 209.196 C 292.792 209.418,292.001 209.600,291.450 209.600 C 290.898 209.600,290.336 209.780,290.200 210.000 C 290.064 210.220,289.333 210.400,288.576 210.400 C 287.819 210.400,287.200 210.580,287.200 210.800 C 287.200 211.020,286.581 211.200,285.824 211.200 C 285.067 211.200,284.336 211.380,284.200 211.600 C 284.064 211.820,283.434 212.000,282.800 212.000 C 282.166 212.000,281.536 212.180,281.400 212.400 C 281.264 212.620,280.713 212.800,280.176 212.800 C 279.639 212.800,279.200 212.620,279.200 212.400 C 279.200 212.180,279.560 212.000,280.000 212.000 C 280.440 212.000,280.800 211.820,280.800 211.600 C 280.800 211.380,281.145 211.200,281.567 211.200 C 281.988 211.200,282.393 211.063,282.467 210.895 C 282.540 210.728,284.760 209.518,287.400 208.208 C 290.040 206.897,292.260 205.684,292.333 205.512 C 292.407 205.341,292.730 205.200,293.053 205.200 C 293.375 205.200,294.384 204.840,295.294 204.400 C 296.205 203.960,297.186 203.600,297.475 203.600 C 297.764 203.600,298.000 203.420,298.000 203.200 C 298.000 202.980,298.360 202.800,298.800 202.800 C 299.240 202.800,299.600 202.620,299.600 202.400 C 299.600 202.180,299.960 202.000,300.400 202.000 C 300.840 202.000,301.200 201.820,301.200 201.600 C 301.200 201.380,301.560 201.200,302.000 201.200 C 302.440 201.200,302.800 201.020,302.800 200.800 C 302.800 200.580,303.072 200.400,303.405 200.400 C 303.738 200.400,304.323 200.232,304.705 200.026 C 305.087 199.821,305.985 199.417,306.700 199.129 C 307.415 198.840,308.000 198.469,308.000 198.302 C 308.000 198.136,308.540 198.000,309.200 198.000 C 309.860 198.000,310.400 197.820,310.400 197.600 C 310.400 197.380,310.760 197.200,311.200 197.200 C 311.640 197.200,312.000 197.020,312.000 196.800 C 312.000 196.580,312.439 196.400,312.976 196.400 C 313.513 196.400,314.064 196.220,314.200 196.000 C 314.336 195.780,314.797 195.600,315.224 195.600 C 315.651 195.600,316.000 195.420,316.000 195.200 C 316.000 194.980,316.540 194.800,317.200 194.800 C 317.860 194.800,318.400 194.620,318.400 194.400 C 318.400 194.180,318.839 194.000,319.376 194.000 C 319.913 194.000,320.464 193.820,320.600 193.600 C 320.736 193.380,321.287 193.200,321.824 193.200 C 322.361 193.200,322.800 193.020,322.800 192.800 C 322.800 192.580,323.138 192.400,323.551 192.400 C 324.025 192.400,324.498 191.919,324.829 191.100 C 325.119 190.385,325.681 189.509,326.078 189.153 C 326.475 188.797,326.800 188.295,326.800 188.036 C 326.800 187.778,327.160 187.180,327.600 186.708 C 328.040 186.236,328.400 185.613,328.400 185.325 C 328.400 185.036,328.580 184.800,328.800 184.800 C 329.020 184.800,329.200 184.480,329.200 184.088 C 329.200 183.697,329.560 183.117,330.000 182.800 C 330.440 182.483,330.800 181.918,330.800 181.545 C 330.800 181.172,330.935 180.807,331.100 180.733 C 331.476 180.566,332.775 178.436,333.071 177.500 C 333.193 177.115,333.452 176.800,333.647 176.800 C 333.841 176.800,334.000 176.506,334.000 176.147 C 334.000 175.788,334.316 175.203,334.703 174.847 C 335.089 174.491,335.674 173.660,336.003 173.000 C 336.331 172.340,336.836 171.551,337.124 171.247 C 337.412 170.944,337.950 169.999,338.318 169.147 C 338.687 168.296,339.126 167.600,339.294 167.600 C 339.462 167.600,339.600 167.240,339.600 166.800 C 339.600 166.360,339.747 166.000,339.926 166.000 C 340.324 166.000,341.600 163.399,341.600 162.586 C 341.600 162.264,341.780 162.000,342.000 162.000 C 342.220 162.000,342.400 161.640,342.400 161.200 C 342.400 160.760,342.580 160.400,342.800 160.400 C 343.020 160.400,343.200 160.164,343.200 159.875 C 343.200 159.587,343.525 159.002,343.922 158.575 C 344.320 158.149,344.903 157.215,345.220 156.500 C 345.536 155.785,345.931 155.200,346.098 155.200 C 346.264 155.200,346.400 154.840,346.400 154.400 C 346.400 153.960,346.580 153.600,346.800 153.600 C 347.020 153.600,347.200 153.240,347.200 152.800 C 347.200 152.360,347.380 152.000,347.600 152.000 C 347.820 152.000,348.000 151.640,348.000 151.200 C 348.000 150.760,348.180 150.400,348.400 150.400 C 348.620 150.400,348.800 150.055,348.800 149.633 C 348.800 149.212,348.935 148.807,349.100 148.733 C 349.476 148.566,350.775 146.436,351.071 145.500 C 351.193 145.115,351.452 144.800,351.647 144.800 C 351.841 144.800,352.000 144.440,352.000 144.000 C 352.000 143.560,352.180 143.200,352.400 143.200 C 352.620 143.200,352.800 142.840,352.800 142.400 C 352.800 141.960,352.980 141.600,353.200 141.600 C 353.420 141.600,353.599 141.375,353.597 141.100 C 353.595 140.825,354.295 139.160,355.153 137.400 C 356.011 135.640,357.011 133.480,357.376 132.600 C 357.741 131.720,358.210 130.687,358.419 130.305 C 358.629 129.923,358.800 129.338,358.800 129.005 C 358.800 128.672,358.980 128.400,359.200 128.400 C 359.420 128.400,359.600 128.040,359.600 127.600 C 359.600 127.160,359.780 126.800,360.000 126.800 C 360.220 126.800,360.400 126.350,360.400 125.800 C 360.400 125.250,360.580 124.800,360.800 124.800 C 361.020 124.800,361.200 124.440,361.200 124.000 C 361.200 123.560,361.380 123.200,361.600 123.200 C 361.820 123.200,362.000 122.840,362.000 122.400 C 362.000 121.960,362.180 121.600,362.400 121.600 C 362.620 121.600,362.800 121.060,362.800 120.400 C 362.800 119.740,362.980 119.200,363.200 119.200 C 363.420 119.200,363.600 118.840,363.600 118.400 C 363.600 117.960,363.780 117.600,364.000 117.600 C 364.220 117.600,364.400 117.251,364.400 116.824 C 364.400 116.397,364.580 115.936,364.800 115.800 C 365.020 115.664,365.200 115.113,365.200 114.576 C 365.200 114.039,365.380 113.600,365.600 113.600 C 365.820 113.600,366.000 113.251,366.000 112.824 C 366.000 112.397,366.180 111.936,366.400 111.800 C 366.620 111.664,366.800 111.113,366.800 110.576 C 366.800 110.039,366.980 109.600,367.200 109.600 C 367.420 109.600,367.600 109.161,367.600 108.624 C 367.600 108.087,367.780 107.536,368.000 107.400 C 368.220 107.264,368.400 106.803,368.400 106.376 C 368.400 105.949,368.580 105.600,368.800 105.600 C 369.020 105.600,369.200 105.161,369.200 104.624 C 369.200 104.087,369.380 103.536,369.600 103.400 C 369.820 103.264,370.000 102.724,370.000 102.200 C 370.000 101.676,370.180 101.136,370.400 101.000 C 370.620 100.864,370.800 100.313,370.800 99.776 C 370.800 99.239,370.980 98.800,371.200 98.800 C 371.420 98.800,371.600 98.348,371.600 97.795 C 371.600 97.242,371.758 96.477,371.951 96.095 C 372.540 94.928,373.200 92.592,373.200 91.672 C 373.200 91.192,373.380 90.800,373.600 90.800 C 373.820 90.800,374.000 90.338,374.000 89.774 C 374.000 89.209,374.182 88.408,374.404 87.992 C 374.627 87.577,374.922 86.149,375.061 84.818 C 375.200 83.488,375.468 82.400,375.657 82.400 C 375.846 82.400,376.000 81.680,376.000 80.800 C 376.000 79.920,376.180 79.200,376.400 79.200 C 376.620 79.200,376.800 78.300,376.800 77.200 C 376.800 76.100,376.980 75.200,377.200 75.200 C 377.420 75.200,377.600 74.221,377.600 73.024 C 377.600 71.827,377.780 70.736,378.000 70.600 C 378.220 70.464,378.400 69.013,378.400 67.376 C 378.400 65.659,378.569 64.400,378.800 64.400 C 379.057 64.400,379.200 60.400,379.200 53.200 C 379.200 46.000,379.057 42.000,378.800 42.000 C 378.578 42.000,378.400 40.933,378.400 39.600 C 378.400 38.267,378.222 37.200,378.000 37.200 C 377.780 37.200,377.600 36.300,377.600 35.200 C 377.600 34.100,377.420 33.200,377.200 33.200 C 376.980 33.200,376.800 32.660,376.800 32.000 C 376.800 31.340,376.620 30.800,376.400 30.800 C 376.180 30.800,376.000 30.260,376.000 29.600 C 376.000 28.940,375.840 28.400,375.645 28.400 C 375.450 28.400,375.194 27.905,375.075 27.300 C 374.731 25.545,373.831 23.200,373.502 23.200 C 373.336 23.200,373.200 22.840,373.200 22.400 C 373.200 21.960,373.020 21.600,372.800 21.600 C 372.580 21.600,372.400 21.240,372.400 20.800 C 372.400 20.360,372.220 20.000,372.000 20.000 C 371.780 20.000,371.600 19.764,371.600 19.475 C 371.600 19.187,371.240 18.564,370.800 18.092 C 370.360 17.620,370.000 17.073,370.000 16.876 C 370.000 16.679,369.460 15.954,368.800 15.263 C 368.140 14.572,367.598 13.871,367.596 13.704 C 367.593 13.537,366.783 12.524,365.796 11.453 C 364.808 10.382,364.000 9.615,364.000 9.749 C 364.000 9.883,363.486 9.454,362.857 8.796 C 362.228 8.138,361.535 7.600,361.316 7.600 C 361.097 7.600,360.354 7.060,359.663 6.400 C 358.972 5.740,358.308 5.200,358.187 5.200 C 358.066 5.200,357.580 4.840,357.108 4.400 C 356.636 3.960,356.013 3.600,355.725 3.600 C 355.436 3.600,355.200 3.420,355.200 3.200 C 355.200 2.980,354.840 2.800,354.400 2.800 C 353.960 2.800,353.600 2.620,353.600 2.400 C 353.600 2.180,353.240 2.000,352.800 2.000 C 352.360 2.000,352.000 1.820,352.000 1.600 C 352.000 1.380,351.475 1.200,350.833 1.200 C 350.192 1.200,349.592 0.975,349.500 0.700 C 349.333 0.198,334.529 -0.135,330.500 0.274 " stroke="none" fill="#043c54" fill-rule="evenodd"></path><path id="path1" d="M47.600 17.161 C 47.600 17.360,46.745 17.617,45.700 17.733 C 42.821 18.051,41.200 18.452,41.200 18.845 C 41.200 19.040,40.660 19.200,40.000 19.200 C 39.340 19.200,38.800 19.380,38.800 19.600 C 38.800 19.820,38.440 20.000,38.000 20.000 C 37.560 20.000,37.200 20.180,37.200 20.400 C 37.200 20.620,36.964 20.800,36.675 20.800 C 36.387 20.800,35.764 21.160,35.292 21.600 C 34.820 22.040,34.252 22.400,34.030 22.400 C 33.030 22.400,25.911 29.565,25.737 30.746 C 25.686 31.098,25.454 31.449,25.222 31.526 C 24.990 31.603,24.800 32.012,24.800 32.433 C 24.800 32.855,24.620 33.200,24.400 33.200 C 24.180 33.200,24.000 33.560,24.000 34.000 C 24.000 34.440,23.820 34.800,23.600 34.800 C 23.380 34.800,23.200 35.160,23.200 35.600 C 23.200 36.040,23.020 36.400,22.800 36.400 C 22.580 36.400,22.400 36.839,22.400 37.376 C 22.400 37.913,22.220 38.464,22.000 38.600 C 21.780 38.736,21.600 39.366,21.600 40.000 C 21.600 40.634,21.420 41.264,21.200 41.400 C 20.645 41.743,20.645 331.057,21.200 331.400 C 21.420 331.536,21.600 332.357,21.600 333.224 C 21.600 334.091,21.780 334.800,22.000 334.800 C 22.220 334.800,22.400 335.351,22.400 336.024 C 22.400 336.737,22.567 337.144,22.800 337.000 C 23.020 336.864,23.200 337.123,23.200 337.576 C 23.200 338.029,23.380 338.400,23.600 338.400 C 23.820 338.400,24.000 338.861,24.000 339.424 C 24.000 340.004,24.173 340.340,24.400 340.200 C 24.620 340.064,24.800 340.323,24.800 340.776 C 24.800 341.229,24.958 341.600,25.151 341.600 C 25.345 341.600,25.724 342.134,25.994 342.786 C 26.930 345.046,33.464 351.162,35.700 351.871 C 36.085 351.993,36.400 352.252,36.400 352.447 C 36.400 352.641,36.665 352.800,36.988 352.800 C 37.311 352.800,38.166 353.129,38.888 353.532 C 39.610 353.934,40.650 354.396,41.200 354.559 C 41.750 354.721,42.830 355.042,43.600 355.272 C 47.421 356.414,53.381 356.505,133.402 356.653 C 213.503 356.801,215.817 356.785,216.270 356.059 C 216.627 355.488,216.601 352.783,216.159 344.556 C 215.823 338.307,215.614 327.933,215.661 319.800 C 215.712 310.712,215.586 305.169,215.301 304.000 C 215.059 303.010,214.657 300.850,214.406 299.200 C 213.925 296.027,213.781 295.235,212.176 287.000 C 208.749 269.405,203.570 250.741,201.189 247.400 C 200.194 246.003,199.928 243.821,200.370 240.663 C 201.319 233.876,203.931 222.794,204.577 222.812 C 205.207 222.830,215.682 242.122,217.231 246.117 C 218.024 248.161,218.160 246.235,217.417 243.484 C 217.078 242.228,216.525 240.165,216.188 238.900 C 214.233 231.554,211.119 222.727,208.375 216.756 L 206.793 213.311 208.223 208.756 C 212.502 195.124,213.160 193.578,213.879 195.467 C 214.032 195.870,215.032 197.717,216.101 199.571 C 218.939 204.492,223.353 213.048,224.421 215.700 C 224.930 216.965,225.494 218.000,225.674 218.000 C 225.853 218.000,226.014 218.495,226.032 219.100 C 226.049 219.705,226.152 219.980,226.261 219.711 C 226.905 218.121,221.400 198.805,218.193 191.400 C 216.233 186.875,215.754 185.330,216.023 184.397 C 216.181 183.849,216.539 182.320,216.818 181.000 C 217.865 176.056,220.687 165.340,222.400 159.800 C 222.876 158.260,223.409 156.460,223.583 155.800 C 223.921 154.520,228.408 141.382,229.169 139.445 C 229.418 138.809,229.532 138.198,229.421 138.087 C 229.310 137.976,229.108 138.226,228.973 138.643 C 228.838 139.059,228.576 139.760,228.390 140.200 C 228.205 140.640,227.824 141.720,227.545 142.600 C 227.265 143.480,226.893 144.371,226.718 144.580 C 226.543 144.789,226.400 145.363,226.400 145.856 C 226.400 146.349,226.220 146.864,226.000 147.000 C 225.780 147.136,225.600 147.676,225.600 148.200 C 225.600 148.724,225.420 149.264,225.200 149.400 C 224.980 149.536,224.800 150.076,224.800 150.600 C 224.800 151.124,224.620 151.664,224.400 151.800 C 224.180 151.936,224.000 152.399,224.000 152.829 C 224.000 153.259,223.838 153.923,223.639 154.305 C 223.440 154.687,223.060 155.810,222.793 156.800 C 222.527 157.790,222.164 158.960,221.988 159.400 C 221.811 159.840,221.550 160.650,221.406 161.200 C 221.263 161.750,220.978 162.785,220.773 163.500 C 220.568 164.215,220.210 165.475,219.977 166.300 C 219.745 167.125,219.373 168.430,219.151 169.200 C 218.929 169.970,218.595 171.230,218.409 172.000 C 218.224 172.770,217.794 174.480,217.455 175.800 C 214.827 186.036,214.847 185.273,217.074 190.400 C 217.408 191.170,217.864 192.250,218.087 192.800 C 218.311 193.350,218.652 194.113,218.847 194.495 C 219.041 194.877,219.200 195.541,219.200 195.971 C 219.200 196.401,219.380 196.864,219.600 197.000 C 219.820 197.136,220.000 197.676,220.000 198.200 C 220.000 198.724,220.180 199.264,220.400 199.400 C 220.620 199.536,220.800 200.076,220.800 200.600 C 220.800 201.124,220.980 201.664,221.200 201.800 C 221.420 201.936,221.600 202.476,221.600 203.000 C 221.600 203.524,221.780 204.064,222.000 204.200 C 222.220 204.336,222.400 205.067,222.400 205.824 C 222.400 206.581,222.580 207.200,222.800 207.200 C 223.020 207.200,223.200 207.794,223.200 208.520 C 223.200 209.246,223.397 210.037,223.638 210.278 C 223.878 210.518,224.013 211.018,223.938 211.388 C 223.857 211.780,222.982 210.505,221.839 208.330 C 220.761 206.279,219.584 204.150,219.225 203.600 C 218.865 203.050,218.308 202.060,217.986 201.400 C 217.665 200.740,217.311 200.110,217.201 200.000 C 216.949 199.749,216.106 198.273,215.030 196.200 C 214.264 194.723,213.323 193.644,212.774 193.613 C 212.650 193.606,212.142 194.815,211.645 196.300 C 211.149 197.785,210.576 199.313,210.371 199.695 C 210.167 200.077,210.000 200.741,210.000 201.171 C 210.000 201.601,209.820 202.064,209.600 202.200 C 209.380 202.336,209.200 202.876,209.200 203.400 C 209.200 203.924,209.020 204.464,208.800 204.600 C 208.580 204.736,208.400 205.366,208.400 206.000 C 208.400 206.634,208.220 207.264,208.000 207.400 C 207.780 207.536,207.600 208.076,207.600 208.600 C 207.600 209.124,207.420 209.664,207.200 209.800 C 206.980 209.936,206.800 210.487,206.800 211.024 C 206.800 211.561,206.620 212.000,206.400 212.000 C 205.818 212.000,205.909 214.297,206.500 214.535 C 206.775 214.646,167.381 214.751,118.958 214.768 L 30.916 214.800 30.677 207.700 C 29.805 181.848,29.479 47.361,30.278 43.508 C 31.895 35.713,38.501 29.149,47.046 26.844 C 49.388 26.213,292.800 26.210,292.800 26.841 C 292.800 27.084,291.413 28.839,289.717 30.741 C 288.021 32.644,286.271 34.650,285.827 35.200 L 285.021 36.200 285.857 35.400 C 286.317 34.960,288.858 32.170,291.504 29.200 C 294.149 26.230,297.683 22.455,299.357 20.810 C 301.031 19.166,302.400 17.591,302.400 17.310 C 302.400 16.898,277.987 16.800,175.000 16.800 C 99.406 16.800,47.600 16.947,47.600 17.161 M281.144 41.100 C 279.993 42.489,279.506 43.200,279.704 43.200 C 279.814 43.200,280.386 42.570,280.973 41.800 C 282.063 40.371,282.195 39.832,281.144 41.100 M278.744 44.300 C 277.593 45.689,277.106 46.400,277.304 46.400 C 277.414 46.400,277.986 45.770,278.573 45.000 C 279.663 43.571,279.795 43.032,278.744 44.300 M274.381 50.228 C 273.689 51.234,273.186 52.119,273.262 52.196 C 273.339 52.273,273.988 51.450,274.704 50.368 C 276.346 47.887,276.073 47.769,274.381 50.228 M271.837 53.800 C 271.476 54.350,271.337 54.800,271.527 54.800 C 271.716 54.800,272.077 54.350,272.327 53.800 C 272.578 53.250,272.717 52.800,272.637 52.800 C 272.557 52.800,272.197 53.250,271.837 53.800 M267.108 60.900 C 266.787 61.395,266.307 62.250,266.040 62.800 C 265.360 64.203,266.594 62.706,267.441 61.100 C 268.139 59.774,267.923 59.644,267.108 60.900 M263.301 67.100 C 261.107 70.624,260.334 72.000,260.548 72.000 C 260.666 72.000,261.382 70.942,262.140 69.648 C 262.898 68.355,263.827 66.825,264.205 66.248 C 264.583 65.672,264.800 65.200,264.688 65.200 C 264.575 65.200,263.951 66.055,263.301 67.100 M259.468 73.500 C 259.369 73.665,258.878 74.520,258.377 75.400 C 257.876 76.280,257.031 77.765,256.499 78.700 C 255.967 79.635,255.622 80.400,255.732 80.400 C 255.842 80.400,256.418 79.545,257.012 78.500 C 257.606 77.455,258.527 75.835,259.059 74.900 C 259.822 73.558,260.192 72.290,259.468 73.500 M254.240 82.798 C 253.640 83.899,253.236 84.800,253.341 84.800 C 253.608 84.800,255.643 81.110,255.471 80.937 C 255.393 80.860,254.839 81.697,254.240 82.798 M251.386 88.100 L 250.752 89.400 251.567 88.400 C 252.352 87.437,252.608 86.800,252.210 86.800 C 252.106 86.800,251.735 87.385,251.386 88.100 M247.084 96.621 C 245.608 99.584,244.409 102.141,244.421 102.304 C 244.432 102.467,245.703 100.106,247.245 97.057 C 248.787 94.009,249.985 91.452,249.908 91.375 C 249.832 91.298,248.561 93.659,247.084 96.621 M243.012 105.012 C 242.455 106.228,242.007 107.353,242.016 107.512 C 242.036 107.877,243.129 105.868,243.856 104.128 C 244.775 101.927,244.098 102.636,243.012 105.012 M240.764 109.900 C 235.860 120.792,230.164 134.698,230.479 135.012 C 230.577 135.111,231.889 132.088,233.393 128.296 C 234.898 124.503,236.640 120.270,237.264 118.890 C 237.889 117.509,238.400 116.300,238.400 116.202 C 238.400 116.104,238.869 114.983,239.443 113.712 C 240.017 112.440,240.767 110.770,241.110 110.000 C 241.454 109.230,241.805 108.465,241.891 108.300 C 241.977 108.135,241.951 108.000,241.834 108.000 C 241.716 108.000,241.235 108.855,240.764 109.900 M229.800 136.400 C 229.650 136.873,229.617 137.350,229.727 137.460 C 229.837 137.570,230.050 137.273,230.200 136.800 C 230.350 136.327,230.383 135.850,230.273 135.740 C 230.163 135.630,229.950 135.927,229.800 136.400 " stroke="none" fill="#1386cd" fill-rule="evenodd"></path><path id="path2" d="M36.378 33.100 L 35.000 34.600 36.500 33.222 C 37.896 31.938,38.184 31.600,37.878 31.600 C 37.812 31.600,37.137 32.275,36.378 33.100 M34.323 35.500 C 33.618 36.321,33.090 37.200,33.301 37.200 C 33.383 37.200,33.849 36.660,34.337 36.000 C 35.301 34.696,35.292 34.372,34.323 35.500 M30.271 76.000 C 30.351 91.950,30.524 115.125,30.656 127.500 L 30.896 150.000 127.848 150.000 L 224.800 150.000 224.800 149.080 C 224.800 148.574,224.943 147.989,225.118 147.780 C 225.293 147.571,225.664 146.680,225.943 145.800 C 226.221 144.920,226.691 143.570,226.988 142.800 C 227.284 142.030,227.921 140.320,228.402 139.000 C 228.884 137.680,229.424 136.240,229.602 135.800 C 229.780 135.360,230.227 134.190,230.596 133.200 C 230.964 132.210,231.539 130.770,231.874 130.000 C 232.208 129.230,232.643 128.195,232.841 127.700 C 233.038 127.205,233.404 126.305,233.654 125.700 C 233.903 125.095,234.240 124.240,234.403 123.800 C 234.747 122.868,236.325 119.317,236.844 118.305 C 237.040 117.923,237.200 117.338,237.200 117.005 C 237.200 116.672,237.380 116.400,237.600 116.400 C 237.820 116.400,238.000 116.128,238.000 115.795 C 238.000 115.462,238.159 114.877,238.354 114.495 C 240.028 111.212,241.200 108.596,241.200 108.144 C 241.200 107.845,241.380 107.600,241.600 107.600 C 241.820 107.600,242.000 107.355,242.000 107.056 C 242.000 106.481,242.683 105.022,246.942 96.500 C 248.398 93.585,249.457 91.203,249.295 91.207 C 249.133 91.211,248.560 92.156,248.023 93.307 C 247.485 94.458,246.945 95.490,246.823 95.600 C 246.700 95.710,246.400 96.160,246.156 96.600 C 245.715 97.397,245.246 97.400,138.256 97.501 L 30.800 97.601 30.747 83.101 C 30.718 75.125,30.567 63.740,30.410 57.800 C 30.240 51.314,30.184 58.584,30.271 76.000 M265.846 62.200 C 265.491 62.750,264.909 63.695,264.553 64.300 L 263.905 65.400 264.710 64.426 C 265.660 63.276,266.921 61.200,266.669 61.200 C 266.571 61.200,266.201 61.650,265.846 62.200 " stroke="none" fill="#60b5e4" fill-rule="evenodd"></path><path id="path3" d="M47.600 27.389 C 38.852 29.405,32.339 35.930,30.820 44.200 C 30.509 45.891,30.460 54.132,30.653 72.101 L 30.928 97.601 138.320 97.501 C 245.246 97.400,245.715 97.397,246.156 96.600 C 246.400 96.160,246.692 95.710,246.805 95.600 C 246.918 95.490,247.458 94.500,248.005 93.400 C 248.552 92.300,249.135 91.340,249.300 91.267 C 249.465 91.193,249.600 90.788,249.600 90.367 C 249.600 89.945,249.780 89.600,250.000 89.600 C 250.220 89.600,250.400 89.255,250.400 88.833 C 250.400 88.412,250.535 88.007,250.700 87.933 C 250.865 87.860,251.405 87.035,251.900 86.100 C 252.395 85.165,253.205 83.635,253.700 82.700 C 254.195 81.765,254.690 80.910,254.801 80.800 C 254.911 80.690,255.271 80.060,255.600 79.400 C 255.929 78.740,256.289 78.110,256.399 78.000 C 256.510 77.890,256.797 77.440,257.038 77.000 C 258.078 75.098,258.613 74.187,258.800 74.000 C 258.910 73.890,259.406 73.054,259.901 72.143 C 261.498 69.208,261.826 68.628,262.812 67.000 C 264.354 64.451,274.083 49.821,274.382 49.600 C 274.531 49.490,275.259 48.500,276.000 47.400 C 276.741 46.300,277.458 45.310,277.593 45.200 C 277.728 45.090,278.271 44.370,278.800 43.600 C 279.329 42.830,279.869 42.110,279.999 42.000 C 280.130 41.890,281.121 40.630,282.200 39.200 C 283.279 37.770,284.264 36.510,284.388 36.400 C 284.512 36.290,285.128 35.570,285.757 34.800 C 286.989 33.292,291.462 28.210,292.329 27.334 C 293.091 26.563,50.948 26.617,47.600 27.389 " stroke="none" fill="#82cbf0" fill-rule="evenodd"></path><path id="path4" d="M47.515 26.728 C 46.897 26.973,208.322 26.950,268.600 26.696 C 282.020 26.640,237.920 26.563,170.600 26.525 C 103.280 26.487,47.892 26.579,47.515 26.728 M37.064 32.027 C 36.048 32.922,34.838 34.227,34.375 34.927 C 33.699 35.949,33.812 35.885,34.945 34.600 C 35.722 33.720,37.042 32.418,37.878 31.706 C 38.715 30.994,39.290 30.409,39.156 30.406 C 39.022 30.403,38.081 31.132,37.064 32.027 M32.600 37.600 C 32.259 38.260,32.069 38.800,32.179 38.800 C 32.289 38.800,32.659 38.260,33.000 37.600 C 33.341 36.940,33.531 36.400,33.421 36.400 C 33.311 36.400,32.941 36.940,32.600 37.600 M30.673 41.753 C 30.523 42.145,30.411 42.766,30.425 43.133 C 30.442 43.575,30.581 43.474,30.837 42.834 C 31.049 42.303,31.161 41.682,31.085 41.454 C 31.009 41.227,30.824 41.361,30.673 41.753 M29.757 46.700 C 29.489 48.442,30.336 196.008,30.689 209.100 L 30.842 214.800 118.921 214.768 C 167.364 214.751,206.775 214.646,206.500 214.535 C 205.909 214.297,205.818 212.000,206.400 212.000 C 206.620 212.000,206.800 211.561,206.800 211.024 C 206.800 210.487,206.980 209.936,207.200 209.800 C 207.420 209.664,207.600 209.124,207.600 208.600 C 207.600 208.076,207.780 207.536,208.000 207.400 C 208.220 207.264,208.400 206.634,208.400 206.000 C 208.400 205.366,208.580 204.736,208.800 204.600 C 209.020 204.464,209.200 203.924,209.200 203.400 C 209.200 202.876,209.380 202.336,209.600 202.200 C 209.820 202.064,210.000 201.601,210.000 201.171 C 210.000 200.741,210.167 200.077,210.371 199.695 C 210.576 199.313,211.149 197.785,211.645 196.300 C 212.142 194.815,212.650 193.606,212.774 193.613 C 213.323 193.644,214.264 194.723,215.030 196.200 C 216.106 198.273,216.949 199.749,217.201 200.000 C 217.311 200.110,217.665 200.740,217.986 201.400 C 218.308 202.060,218.865 203.050,219.225 203.600 C 219.584 204.150,220.761 206.279,221.839 208.330 C 222.982 210.505,223.857 211.780,223.938 211.388 C 224.013 211.018,223.878 210.518,223.638 210.278 C 223.397 210.037,223.200 209.246,223.200 208.520 C 223.200 207.794,223.020 207.200,222.800 207.200 C 222.580 207.200,222.400 206.581,222.400 205.824 C 222.400 205.067,222.220 204.336,222.000 204.200 C 221.780 204.064,221.600 203.524,221.600 203.000 C 221.600 202.476,221.420 201.936,221.200 201.800 C 220.980 201.664,220.800 201.124,220.800 200.600 C 220.800 200.076,220.620 199.536,220.400 199.400 C 220.180 199.264,220.000 198.724,220.000 198.200 C 220.000 197.676,219.820 197.136,219.600 197.000 C 219.380 196.864,219.200 196.401,219.200 195.971 C 219.200 195.541,219.041 194.877,218.847 194.495 C 218.652 194.113,218.311 193.350,218.087 192.800 C 217.864 192.250,217.408 191.170,217.074 190.400 C 214.847 185.273,214.827 186.036,217.455 175.800 C 217.794 174.480,218.224 172.770,218.409 172.000 C 218.595 171.230,218.939 169.925,219.173 169.100 C 219.408 168.275,219.790 166.925,220.023 166.100 C 220.255 165.275,220.603 164.060,220.796 163.400 C 220.988 162.740,221.263 161.750,221.406 161.200 C 221.550 160.650,221.811 159.840,221.988 159.400 C 222.164 158.960,222.527 157.790,222.793 156.800 C 223.060 155.810,223.440 154.687,223.639 154.305 C 223.838 153.923,224.000 153.259,224.000 152.829 C 224.000 152.399,224.180 151.936,224.400 151.800 C 224.620 151.664,224.800 151.203,224.800 150.776 C 224.800 150.010,223.551 150.000,127.848 150.000 L 30.896 150.000 30.646 127.500 C 30.509 115.125,30.352 91.455,30.298 74.901 C 30.244 58.346,30.166 44.801,30.125 44.801 C 30.083 44.800,29.918 45.655,29.757 46.700 M231.632 130.500 C 231.441 130.995,230.979 132.210,230.605 133.200 C 230.231 134.190,229.780 135.360,229.602 135.800 C 229.424 136.240,228.884 137.680,228.402 139.000 C 227.921 140.320,227.245 142.077,226.901 142.904 C 226.557 143.731,226.389 144.522,226.528 144.661 C 226.667 144.801,226.892 144.574,227.028 144.157 C 227.982 141.233,228.420 140.029,229.126 138.400 C 229.365 137.850,229.822 136.590,230.144 135.600 C 230.465 134.610,231.101 132.855,231.558 131.700 C 232.015 130.545,232.296 129.600,232.184 129.600 C 232.072 129.600,231.824 130.005,231.632 130.500 M225.888 145.733 C 225.442 146.866,225.515 147.445,226.038 146.922 C 226.278 146.682,226.408 146.151,226.326 145.742 C 226.182 145.026,226.166 145.026,225.888 145.733 M225.100 147.831 C 224.935 147.997,224.800 148.499,224.800 148.947 C 224.800 149.535,224.921 149.639,225.238 149.322 C 225.478 149.082,225.613 148.580,225.538 148.207 C 225.462 147.833,225.265 147.664,225.100 147.831 " stroke="none" fill="#48a5de" fill-rule="evenodd"></path></g></svg>