<svg id="svg" version="1.1" xmlns="http://www.w3.org/2000/svg" xmlns:xlink="http://www.w3.org/1999/xlink" width="400" height="488.5197850512946" viewBox="0, 0, 400,488.5197850512946"><g id="svgg"><path id="path0" d="M198.758 3.743 C 197.851 3.892,196.431 4.222,195.603 4.477 C 194.774 4.731,193.832 4.973,193.508 5.014 C 193.183 5.055,192.817 5.164,192.693 5.258 C 192.569 5.351,192.148 5.553,191.756 5.707 C 188.818 6.855,183.957 10.690,181.738 13.609 C 181.258 14.241,180.796 14.789,180.712 14.826 C 180.628 14.863,180.560 14.993,180.560 15.114 C 180.560 15.351,179.974 16.318,178.001 19.338 C 177.306 20.402,176.399 21.913,175.986 22.697 C 175.572 23.481,175.026 24.397,174.773 24.733 C 174.519 25.069,173.777 26.214,173.123 27.277 C 172.470 28.341,171.882 29.257,171.816 29.313 C 171.750 29.369,171.579 29.644,171.436 29.924 C 170.788 31.191,170.459 31.751,169.536 33.158 C 168.994 33.985,168.550 34.733,168.550 34.820 C 168.550 34.908,168.479 35.009,168.392 35.047 C 168.238 35.113,165.903 38.797,165.903 38.974 C 165.903 39.099,163.607 42.762,162.402 44.560 C 161.846 45.389,161.302 46.305,161.192 46.596 C 160.994 47.119,159.822 49.066,159.586 49.262 C 159.518 49.318,158.932 50.234,158.282 51.298 C 157.632 52.361,156.984 53.369,156.841 53.537 C 156.698 53.705,156.266 54.440,155.881 55.171 C 155.496 55.902,154.469 57.577,153.600 58.894 C 152.730 60.211,151.749 61.811,151.421 62.451 C 151.092 63.090,150.514 64.071,150.136 64.631 C 148.305 67.344,146.768 69.794,146.768 70.000 C 146.768 70.126,146.662 70.229,146.531 70.229 C 146.400 70.229,146.348 70.284,146.415 70.350 C 146.543 70.479,145.104 72.940,144.614 73.431 C 144.455 73.589,144.326 73.850,144.326 74.009 C 144.326 74.169,144.257 74.303,144.173 74.306 C 144.089 74.309,143.471 75.227,142.799 76.346 C 140.053 80.918,138.545 83.364,138.412 83.461 C 138.206 83.610,136.518 86.407,136.612 86.443 C 136.690 86.473,134.318 90.210,132.980 92.167 C 132.618 92.697,132.131 93.524,131.897 94.007 C 131.447 94.935,129.871 97.538,129.655 97.710 C 129.467 97.860,127.955 100.294,127.292 101.514 C 126.640 102.714,123.756 107.326,123.561 107.481 C 123.321 107.672,121.934 110.033,121.934 110.250 C 121.934 110.369,121.562 110.997,121.108 111.645 C 120.250 112.871,117.252 117.638,117.252 117.778 C 117.252 117.941,114.916 121.649,114.464 122.204 C 114.206 122.520,113.995 122.910,113.995 123.069 C 113.995 123.228,113.918 123.359,113.824 123.359 C 113.730 123.359,113.478 123.724,113.264 124.171 C 113.050 124.617,112.817 124.984,112.745 124.985 C 112.673 124.986,112.460 125.377,112.270 125.852 C 112.081 126.328,111.764 126.901,111.565 127.125 C 111.220 127.513,109.148 130.791,108.112 132.588 C 107.844 133.054,107.567 133.481,107.497 133.537 C 107.428 133.593,107.258 133.895,107.120 134.209 C 106.982 134.523,106.503 135.331,106.056 136.005 C 105.608 136.678,105.242 137.307,105.242 137.402 C 105.242 137.497,105.160 137.605,105.060 137.642 C 104.961 137.679,104.029 139.130,102.990 140.865 C 101.951 142.601,100.308 145.257,99.339 146.768 C 98.371 148.280,97.463 149.805,97.323 150.157 C 97.182 150.509,96.912 150.967,96.722 151.175 C 96.531 151.382,95.790 152.514,95.075 153.690 C 94.360 154.865,93.600 156.023,93.386 156.263 C 93.173 156.503,92.980 156.823,92.958 156.975 C 92.909 157.304,91.613 159.459,89.607 162.545 C 88.806 163.776,88.157 164.865,88.164 164.965 C 88.171 165.064,88.101 165.201,88.007 165.270 C 87.914 165.338,87.700 165.642,87.532 165.944 C 86.929 167.031,84.606 170.706,83.938 171.630 C 83.564 172.149,83.257 172.671,83.257 172.789 C 83.257 173.006,81.651 175.689,81.408 175.878 C 81.164 176.068,78.372 180.707,78.372 180.922 C 78.372 181.040,78.303 181.167,78.219 181.204 C 78.135 181.242,77.482 182.234,76.768 183.410 C 76.054 184.585,75.406 185.593,75.328 185.649 C 75.250 185.705,75.009 186.071,74.794 186.463 C 74.578 186.855,74.346 187.221,74.278 187.277 C 74.210 187.333,73.810 188.020,73.390 188.804 C 72.680 190.127,71.525 191.975,69.594 194.875 C 69.159 195.527,68.804 196.145,68.804 196.249 C 68.804 196.353,68.712 196.438,68.601 196.438 C 68.489 196.438,68.397 196.577,68.397 196.747 C 68.397 197.083,68.080 197.614,65.844 201.020 C 65.034 202.253,64.110 203.733,63.789 204.309 C 62.866 205.968,61.529 208.140,60.573 209.537 C 60.089 210.244,59.630 211.022,59.553 211.264 C 59.476 211.506,59.337 211.705,59.245 211.705 C 59.153 211.705,58.937 212.056,58.765 212.484 C 58.594 212.913,57.960 213.989,57.358 214.876 C 56.755 215.763,55.764 217.313,55.157 218.321 C 54.549 219.328,54.005 220.199,53.947 220.255 C 53.889 220.311,53.625 220.769,53.360 221.273 C 53.095 221.776,52.305 223.059,51.604 224.122 C 49.690 227.029,48.855 228.385,48.855 228.587 C 48.855 228.686,48.282 229.637,47.583 230.700 C 46.037 233.046,45.221 234.342,44.682 235.304 C 44.458 235.704,44.206 236.061,44.122 236.098 C 44.038 236.136,43.969 236.279,43.969 236.418 C 43.969 236.556,43.254 237.762,42.380 239.098 C 40.706 241.657,39.195 244.104,39.183 244.275 C 39.179 244.331,38.853 244.880,38.458 245.496 C 38.063 246.112,37.294 247.349,36.748 248.244 C 36.202 249.140,35.598 250.056,35.405 250.280 C 35.213 250.504,34.661 251.445,34.179 252.371 C 33.698 253.298,33.160 254.214,32.984 254.407 C 32.808 254.600,32.216 255.491,31.667 256.387 C 31.119 257.282,30.365 258.440,29.992 258.959 C 29.618 259.477,29.313 259.997,29.313 260.113 C 29.313 260.390,27.270 263.695,27.044 263.783 C 26.948 263.820,26.870 263.928,26.870 264.023 C 26.870 264.118,26.497 264.756,26.042 265.442 C 25.586 266.128,24.977 267.165,24.687 267.747 C 24.397 268.328,24.100 268.850,24.027 268.906 C 23.953 268.962,23.216 270.107,22.389 271.450 C 21.561 272.794,20.582 274.316,20.213 274.833 C 19.844 275.351,19.542 275.884,19.542 276.020 C 19.542 276.155,19.078 276.956,18.510 277.801 C 16.964 280.103,15.267 282.885,15.267 283.118 C 15.267 283.232,15.198 283.355,15.115 283.393 C 15.031 283.430,14.327 284.514,13.550 285.802 C 12.774 287.089,12.083 288.188,12.015 288.244 C 11.746 288.465,9.975 291.384,9.975 291.605 C 9.975 291.735,9.627 292.337,9.203 292.943 C 8.779 293.550,7.896 294.916,7.241 295.980 C 6.585 297.043,5.971 297.944,5.874 297.981 C 5.778 298.019,5.700 298.165,5.700 298.306 C 5.700 298.448,5.517 298.775,5.293 299.033 C 5.069 299.291,4.885 299.609,4.885 299.740 C 4.885 299.870,4.170 301.070,3.296 302.406 C 2.421 303.742,1.345 305.423,0.904 306.142 L 0.102 307.450 0.042 322.020 C -0.026 338.823,-0.149 337.300,1.479 339.781 C 2.177 340.846,3.252 342.482,3.868 343.417 C 4.483 344.353,4.964 345.192,4.936 345.282 C 4.908 345.372,4.966 345.445,5.064 345.445 C 5.162 345.445,5.371 345.697,5.528 346.005 C 5.936 346.802,8.974 351.391,9.332 351.751 C 9.497 351.917,9.799 352.421,10.004 352.871 C 10.360 353.654,11.344 355.188,13.152 357.782 C 13.613 358.442,14.258 359.486,14.586 360.102 C 14.914 360.718,15.332 361.405,15.513 361.628 C 16.166 362.432,19.392 367.347,19.856 368.244 C 20.117 368.748,20.656 369.618,21.054 370.178 C 22.337 371.982,23.680 374.022,24.213 374.974 C 24.656 375.764,25.929 377.696,28.553 381.562 C 28.863 382.018,29.351 382.850,29.637 383.410 C 29.923 383.969,30.320 384.611,30.518 384.835 C 30.987 385.364,33.958 389.925,34.246 390.557 C 34.368 390.824,34.544 391.043,34.638 391.043 C 34.732 391.043,34.809 391.133,34.809 391.242 C 34.809 391.487,37.331 395.405,37.840 395.951 C 38.043 396.169,38.461 396.845,38.769 397.454 C 39.077 398.062,39.502 398.761,39.715 399.006 C 39.928 399.251,40.102 399.558,40.102 399.687 C 40.102 399.817,40.279 400.113,40.495 400.345 C 40.711 400.577,41.593 401.854,42.454 403.182 C 43.315 404.511,44.077 405.644,44.147 405.700 C 44.217 405.756,44.295 405.907,44.319 406.037 C 44.361 406.257,46.016 408.805,47.981 411.676 C 48.452 412.363,48.841 413.041,48.846 413.181 C 48.851 413.321,48.947 413.435,49.059 413.435 C 49.170 413.435,49.262 413.530,49.262 413.646 C 49.262 413.866,53.098 419.768,53.361 419.953 C 53.444 420.012,53.602 420.296,53.712 420.586 C 53.822 420.876,54.973 422.690,56.269 424.616 C 57.565 426.543,58.626 428.250,58.626 428.411 C 58.626 428.571,58.702 428.702,58.795 428.702 C 58.888 428.702,59.094 428.954,59.253 429.262 C 59.411 429.570,59.594 429.868,59.658 429.924 C 59.722 429.980,60.358 430.941,61.073 432.061 C 61.787 433.181,62.591 434.366,62.860 434.696 C 63.128 435.025,63.429 435.508,63.528 435.769 C 63.719 436.271,65.101 438.504,65.328 438.677 C 65.532 438.832,67.801 442.321,68.387 443.380 C 69.045 444.569,71.561 448.373,72.174 449.105 C 72.430 449.411,72.801 450.029,73.000 450.479 C 73.198 450.930,73.435 451.298,73.525 451.298 C 73.616 451.298,73.690 451.404,73.690 451.533 C 73.690 451.662,73.919 452.068,74.198 452.435 C 74.478 452.802,74.707 453.179,74.707 453.273 C 74.707 453.367,74.967 453.763,75.284 454.152 C 75.601 454.541,76.349 455.639,76.945 456.590 C 79.314 460.372,81.695 464.014,81.989 464.308 C 82.159 464.478,82.446 464.946,82.625 465.347 C 82.951 466.073,84.658 468.814,84.905 469.008 C 84.977 469.064,85.655 470.071,86.412 471.247 C 87.169 472.422,87.848 473.430,87.919 473.486 C 87.991 473.542,88.150 473.817,88.274 474.097 C 89.236 476.277,97.114 483.729,98.166 483.454 C 98.195 483.446,98.997 483.799,99.949 484.238 C 106.675 487.340,113.457 487.859,120.407 485.803 C 123.571 484.866,126.726 483.897,127.390 483.657 C 127.759 483.523,128.107 483.459,128.164 483.516 C 128.220 483.572,128.650 483.501,129.120 483.358 C 129.590 483.215,131.944 482.488,134.351 481.744 C 136.758 480.999,139.781 480.067,141.069 479.672 C 142.356 479.277,143.547 478.908,143.715 478.852 C 143.883 478.796,144.341 478.708,144.733 478.658 C 145.125 478.608,145.812 478.438,146.260 478.280 C 146.707 478.122,148.265 477.629,149.720 477.184 C 151.176 476.739,153.466 476.036,154.809 475.621 C 158.482 474.486,161.037 473.747,161.832 473.589 C 162.224 473.512,163.690 473.096,165.089 472.665 C 166.489 472.235,168.824 471.517,170.280 471.070 C 171.735 470.623,173.883 469.962,175.052 469.600 C 176.220 469.239,177.389 468.920,177.648 468.891 C 178.109 468.841,179.090 468.554,184.224 466.971 C 190.839 464.931,194.122 463.960,194.402 463.960 C 194.570 463.961,198.299 462.853,202.689 461.497 C 207.079 460.142,210.853 459.033,211.076 459.033 C 211.300 459.033,211.693 458.948,211.950 458.844 C 212.207 458.740,213.379 458.368,214.555 458.018 C 215.730 457.668,217.861 457.022,219.289 456.582 C 220.717 456.143,223.053 455.424,224.479 454.985 C 225.906 454.547,227.211 454.194,227.379 454.201 C 227.665 454.214,229.402 453.702,233.791 452.313 C 237.622 451.100,240.975 450.085,242.545 449.664 C 245.784 448.795,246.450 448.607,248.753 447.905 C 252.856 446.655,256.341 445.577,257.928 445.067 C 258.776 444.794,259.784 444.530,260.167 444.481 C 260.551 444.431,262.377 443.918,264.224 443.342 C 266.071 442.765,268.728 441.945,270.127 441.519 C 271.527 441.094,273.450 440.504,274.402 440.210 C 275.354 439.915,276.453 439.632,276.845 439.581 C 277.237 439.530,277.786 439.404,278.066 439.300 C 278.346 439.196,279.766 438.744,281.221 438.296 C 289.845 435.637,293.301 434.606,293.587 434.606 C 293.885 434.606,297.203 433.608,305.751 430.947 C 307.598 430.372,309.352 429.868,309.648 429.828 C 310.153 429.760,314.207 428.560,320.305 426.675 C 322.980 425.848,325.270 425.190,328.244 424.392 C 329.140 424.152,330.514 423.749,331.298 423.498 C 332.081 423.246,334.280 422.566,336.183 421.987 C 338.087 421.407,340.190 420.750,340.858 420.528 C 341.526 420.305,342.396 420.084,342.792 420.036 C 343.188 419.988,344.198 419.729,345.038 419.460 C 345.878 419.191,348.122 418.496,350.025 417.915 C 351.929 417.334,354.632 416.499,356.033 416.059 C 357.434 415.620,358.862 415.224,359.205 415.181 C 359.549 415.137,362.112 414.396,364.902 413.533 C 373.796 410.782,375.247 410.348,376.178 410.157 C 380.309 409.309,387.414 404.561,390.066 400.876 C 390.324 400.519,390.835 399.811,391.203 399.303 C 392.883 396.983,394.607 393.512,394.943 391.773 C 395.031 391.316,395.302 390.117,395.544 389.109 C 396.125 386.697,396.190 380.615,395.661 378.219 C 394.868 374.631,394.439 373.202,393.767 371.908 C 392.266 369.019,390.028 364.306,390.116 364.218 C 390.172 364.162,389.859 363.419,389.420 362.567 C 387.691 359.211,385.344 354.380,385.344 354.177 C 385.344 353.943,384.040 351.191,381.857 346.816 C 381.087 345.274,380.458 343.893,380.458 343.746 C 380.458 343.599,379.417 341.379,378.145 338.813 C 376.872 336.247,375.765 333.919,375.684 333.639 C 375.603 333.359,374.574 331.160,373.396 328.753 C 372.218 326.346,371.074 323.919,370.854 323.359 C 370.633 322.799,369.625 320.646,368.614 318.575 C 367.602 316.504,366.473 314.113,366.105 313.262 C 365.737 312.411,365.347 311.541,365.238 311.328 C 365.129 311.116,364.621 310.071,364.110 309.008 C 363.599 307.944,362.681 306.052,362.069 304.803 C 361.457 303.555,360.891 302.318,360.812 302.055 C 360.672 301.594,359.300 298.709,356.816 293.655 C 356.160 292.320,355.623 291.129,355.622 291.008 C 355.622 290.888,354.650 288.819,353.462 286.412 C 351.206 281.840,350.920 281.223,350.816 280.701 C 350.781 280.527,349.794 278.466,348.622 276.121 C 346.559 271.993,346.049 270.903,345.943 270.394 C 345.915 270.261,344.875 268.081,343.633 265.551 C 342.391 263.021,341.374 260.853,341.374 260.735 C 341.374 260.616,340.275 258.278,338.931 255.539 C 337.588 252.800,336.489 250.462,336.489 250.343 C 336.489 250.224,335.389 247.894,334.046 245.166 C 332.702 242.437,331.603 240.112,331.603 239.998 C 331.603 239.884,331.515 239.632,331.407 239.437 C 330.846 238.426,326.921 230.193,326.921 230.029 C 326.921 229.923,325.822 227.586,324.478 224.835 C 323.135 222.083,322.036 219.698,322.036 219.535 C 322.036 219.371,321.959 219.237,321.866 219.237 C 321.773 219.237,321.695 219.122,321.693 218.982 C 321.691 218.842,320.668 216.645,319.420 214.100 C 318.171 211.554,317.150 209.333,317.150 209.163 C 317.150 208.994,317.043 208.855,316.913 208.855 C 316.782 208.855,316.735 208.796,316.807 208.723 C 316.880 208.650,316.720 208.169,316.453 207.654 C 314.968 204.795,312.265 199.080,312.265 198.800 C 312.265 198.620,312.173 198.473,312.061 198.473 C 311.949 198.473,311.880 198.400,311.908 198.311 C 311.964 198.135,311.962 198.133,309.230 192.565 C 308.212 190.491,307.379 188.636,307.379 188.443 C 307.379 188.250,307.288 188.092,307.176 188.092 C 307.064 188.092,306.972 187.954,306.972 187.787 C 306.972 187.619,305.964 185.428,304.733 182.919 C 303.501 180.409,302.494 178.211,302.494 178.033 C 302.494 177.855,302.420 177.710,302.331 177.710 C 302.242 177.710,302.047 177.366,301.898 176.947 C 301.750 176.527,300.724 174.334,299.618 172.074 C 298.513 169.813,297.608 167.875,297.608 167.766 C 297.608 167.657,296.509 165.322,295.165 162.578 C 293.822 159.834,292.723 157.529,292.723 157.458 C 292.723 157.267,292.001 155.725,289.720 151.043 C 288.602 148.748,287.618 146.650,287.535 146.381 C 287.451 146.113,286.368 143.822,285.128 141.292 C 283.888 138.762,282.852 136.563,282.824 136.405 C 282.773 136.109,282.300 135.115,279.568 129.567 C 278.686 127.776,277.953 126.173,277.938 126.005 C 277.924 125.837,277.321 124.509,276.598 123.053 C 273.693 117.202,273.079 115.921,273.075 115.712 C 273.072 115.496,272.746 114.812,269.790 108.825 C 268.966 107.158,268.257 105.601,268.213 105.365 C 268.142 104.982,267.201 103.018,264.299 97.201 C 263.797 96.193,263.360 95.232,263.329 95.064 C 263.264 94.711,262.284 92.619,260.073 88.116 C 259.213 86.367,258.476 84.764,258.435 84.554 C 258.393 84.345,257.764 82.982,257.037 81.527 C 254.883 77.215,253.609 74.548,253.567 74.263 C 253.529 74.003,251.659 70.077,250.288 67.379 C 249.918 66.651,249.185 65.059,248.659 63.841 C 248.133 62.623,247.080 60.379,246.318 58.854 C 245.557 57.329,244.502 55.087,243.974 53.871 C 243.446 52.655,242.146 49.907,241.085 47.764 C 240.024 45.621,238.941 43.315,238.680 42.639 C 238.252 41.533,235.854 36.539,234.628 34.198 C 234.364 33.695,234.034 32.916,233.895 32.468 C 233.756 32.020,233.286 30.967,232.851 30.127 C 231.213 26.964,229.008 22.316,229.008 22.025 C 229.008 21.524,225.809 15.706,225.041 14.808 C 224.647 14.348,224.326 13.872,224.326 13.748 C 224.326 13.432,221.088 9.975,220.792 9.975 C 220.658 9.975,220.230 9.666,219.841 9.290 C 218.365 7.859,213.585 5.158,212.242 4.996 C 212.002 4.967,211.165 4.753,210.382 4.521 C 207.160 3.565,201.968 3.218,198.758 3.743 M215.258 64.307 C 217.116 65.149,219.440 67.719,219.440 68.931 C 219.440 69.085,219.517 69.211,219.610 69.211 C 219.703 69.211,219.779 69.346,219.779 69.511 C 219.779 69.676,220.291 70.844,220.915 72.107 C 223.660 77.653,224.326 79.060,224.326 79.318 C 224.326 79.469,224.402 79.593,224.495 79.593 C 224.589 79.593,224.665 79.726,224.665 79.889 C 224.665 80.179,224.976 80.838,227.819 86.574 C 228.585 88.119,229.211 89.516,229.211 89.679 C 229.211 89.841,229.308 89.975,229.427 89.975 C 229.545 89.975,229.591 90.058,229.527 90.160 C 229.464 90.263,229.824 91.156,230.326 92.145 C 232.457 96.343,234.097 99.785,234.097 100.060 C 234.097 100.223,234.188 100.356,234.300 100.356 C 234.412 100.356,234.504 100.509,234.504 100.695 C 234.504 100.882,235.511 103.090,236.743 105.602 C 237.975 108.114,238.982 110.279,238.982 110.413 C 238.982 110.547,240.083 112.880,241.428 115.597 C 242.774 118.314,243.899 120.691,243.929 120.879 C 243.959 121.067,245.046 123.381,246.344 126.021 C 247.642 128.661,248.772 131.042,248.856 131.314 C 248.939 131.585,249.966 133.776,251.138 136.183 C 252.309 138.590,253.497 141.109,253.776 141.781 C 254.241 142.898,255.508 145.553,257.842 150.302 C 258.329 151.294,258.728 152.190,258.728 152.294 C 258.728 152.398,259.790 154.655,261.089 157.310 C 262.387 159.965,263.479 162.287,263.515 162.470 C 263.551 162.653,264.652 164.989,265.962 167.661 C 267.272 170.333,268.360 172.626,268.380 172.756 C 268.400 172.886,268.567 173.298,268.752 173.672 C 270.828 177.870,273.227 182.920,273.283 183.211 C 273.322 183.412,274.425 185.760,275.733 188.430 C 277.042 191.099,278.134 193.374,278.160 193.486 C 278.265 193.937,278.765 195.013,280.812 199.185 C 281.989 201.585,282.952 203.644,282.952 203.760 C 282.952 203.877,284.051 206.216,285.394 208.957 C 286.738 211.698,287.837 214.028,287.837 214.135 C 287.837 214.242,288.936 216.579,290.280 219.330 C 291.623 222.081,292.723 224.416,292.723 224.520 C 292.723 224.623,293.822 226.952,295.165 229.695 C 296.509 232.438,297.608 234.770,297.608 234.878 C 297.608 234.985,298.099 236.067,298.699 237.282 C 300.988 241.919,302.494 245.052,302.494 245.178 C 302.494 245.371,303.519 247.562,305.548 251.705 C 306.535 253.720,307.404 255.578,307.479 255.834 C 307.553 256.090,308.119 257.326,308.735 258.582 C 311.738 264.705,312.456 266.235,312.575 266.769 C 312.600 266.881,313.640 269.040,314.886 271.566 C 316.131 274.092,317.150 276.313,317.150 276.502 C 317.150 276.691,317.223 276.845,317.313 276.845 C 317.402 276.845,317.599 277.188,317.751 277.608 C 317.902 278.028,318.928 280.213,320.031 282.464 C 321.133 284.715,322.036 286.707,322.036 286.891 C 322.036 287.076,322.142 287.226,322.273 287.226 C 322.404 287.226,322.458 287.279,322.394 287.344 C 322.329 287.408,322.622 288.164,323.045 289.023 C 325.618 294.256,326.921 296.982,326.922 297.132 C 326.922 297.226,327.366 298.219,327.909 299.338 C 328.451 300.458,329.556 302.748,330.364 304.427 C 331.172 306.107,331.964 307.724,332.125 308.021 C 332.286 308.318,332.417 308.656,332.417 308.771 C 332.417 308.886,333.367 310.932,334.528 313.319 C 335.689 315.706,336.761 317.980,336.910 318.372 C 337.058 318.763,338.123 321.008,339.275 323.359 C 340.428 325.710,341.371 327.721,341.372 327.827 C 341.373 327.934,341.937 329.170,342.625 330.575 C 343.312 331.980,344.412 334.225,345.067 335.564 C 345.723 336.903,346.260 338.116,346.260 338.261 C 346.260 338.406,346.359 338.524,346.480 338.524 C 346.601 338.524,346.659 338.639,346.609 338.779 C 346.559 338.919,346.912 339.812,347.394 340.763 C 349.702 345.323,351.145 348.341,351.145 348.610 C 351.145 348.773,351.237 348.906,351.349 348.906 C 351.461 348.906,351.552 349.099,351.552 349.335 C 351.552 349.571,351.872 350.372,352.263 351.116 C 353.967 354.355,356.031 358.724,356.031 359.091 C 356.031 359.311,356.122 359.491,356.234 359.491 C 356.346 359.491,356.438 359.577,356.438 359.682 C 356.438 359.922,357.907 363.059,359.614 366.465 C 360.330 367.894,360.916 369.245,360.916 369.468 C 360.916 369.691,361.008 369.873,361.120 369.873 C 361.232 369.873,361.301 369.941,361.274 370.025 C 361.248 370.109,361.603 370.957,362.064 371.908 C 363.880 375.656,363.865 378.934,362.020 381.819 C 361.637 382.418,361.323 382.957,361.323 383.015 C 361.323 383.499,358.474 385.891,357.706 386.053 C 357.512 386.094,356.346 386.462,355.115 386.870 C 353.883 387.279,351.410 388.057,349.618 388.600 C 347.827 389.143,345.292 389.915,343.986 390.315 C 342.680 390.716,341.473 391.043,341.306 391.043 C 341.138 391.043,339.047 391.647,336.658 392.384 C 334.270 393.122,331.125 394.092,329.669 394.539 C 328.214 394.986,326.748 395.440,326.412 395.547 C 326.076 395.654,325.481 395.786,325.089 395.840 C 324.697 395.895,323.186 396.310,321.730 396.765 C 320.275 397.219,318.763 397.688,318.372 397.808 C 317.980 397.928,317.293 398.146,316.845 398.292 C 314.189 399.157,309.185 400.634,308.683 400.700 C 308.358 400.743,306.855 401.158,305.344 401.623 C 300.742 403.037,298.243 403.806,295.369 404.691 C 293.858 405.156,292.209 405.612,291.705 405.703 C 291.201 405.794,290.377 406.005,289.873 406.173 C 289.369 406.341,286.804 407.134,284.173 407.936 C 281.542 408.737,278.695 409.620,277.847 409.898 C 276.998 410.175,276.082 410.429,275.811 410.463 C 275.540 410.497,274.906 410.637,274.402 410.775 C 273.498 411.024,272.614 411.293,263.616 414.062 C 261.099 414.837,258.895 415.471,258.718 415.471 C 258.542 415.471,256.892 415.932,255.051 416.496 C 253.211 417.060,250.193 417.984,248.346 418.548 C 246.499 419.112,244.645 419.703,244.227 419.860 C 243.808 420.018,243.104 420.193,242.663 420.248 C 242.221 420.304,241.006 420.619,239.963 420.948 C 238.920 421.277,237.104 421.838,235.929 422.194 C 234.753 422.550,232.967 423.097,231.959 423.410 C 226.945 424.966,225.907 425.263,225.810 425.166 C 225.752 425.107,225.371 425.185,224.964 425.338 C 224.557 425.490,223.399 425.860,222.392 426.160 C 221.384 426.459,220.331 426.787,220.051 426.888 C 219.771 426.989,218.489 427.386,217.201 427.771 C 215.913 428.155,213.669 428.831,212.214 429.273 C 210.758 429.714,209.247 430.135,208.855 430.207 C 208.463 430.279,207.135 430.652,205.903 431.036 C 198.512 433.336,192.961 435.009,192.826 434.977 C 192.651 434.936,191.531 435.240,189.313 435.931 C 188.473 436.192,186.550 436.787,185.038 437.252 C 183.527 437.718,181.132 438.461,179.716 438.904 C 178.301 439.346,176.863 439.744,176.522 439.787 C 176.181 439.830,175.324 440.050,174.617 440.275 C 173.911 440.500,172.280 441.003,170.992 441.392 C 166.526 442.744,163.756 443.600,161.870 444.211 C 160.827 444.549,159.927 444.779,159.870 444.722 C 159.813 444.664,159.246 444.785,158.611 444.990 C 157.975 445.195,156.539 445.641,155.420 445.982 C 154.300 446.322,151.873 447.069,150.025 447.642 C 144.762 449.275,144.067 449.476,143.316 449.580 C 142.928 449.634,141.783 449.942,140.771 450.266 C 137.055 451.453,135.303 451.457,132.772 450.281 C 128.676 448.378,126.902 444.342,128.008 439.442 C 128.242 438.405,128.661 436.504,128.940 435.216 C 129.949 430.556,130.475 428.148,131.007 425.751 C 131.305 424.407,131.545 423.079,131.541 422.799 C 131.537 422.519,131.706 421.511,131.918 420.560 C 132.130 419.608,132.532 417.776,132.811 416.489 C 133.091 415.201,134.019 410.941,134.873 407.023 C 135.728 403.104,136.428 399.669,136.430 399.389 C 136.431 399.109,136.884 396.819,137.436 394.300 C 137.988 391.781,138.621 388.850,138.843 387.786 C 139.064 386.723,139.653 384.020,140.151 381.781 C 140.649 379.542,141.099 377.298,141.152 376.794 C 141.248 375.871,141.546 374.396,142.697 369.160 C 143.042 367.593,143.498 365.486,143.711 364.478 C 143.924 363.471,144.564 360.539,145.133 357.964 C 145.703 355.389,146.178 353.053,146.189 352.774 C 146.207 352.324,146.649 350.199,149.006 339.237 C 149.319 337.781,149.909 335.033,150.317 333.130 C 150.726 331.226,151.094 329.303,151.137 328.855 C 151.179 328.407,151.686 325.888,152.264 323.257 C 155.393 309.001,155.956 306.364,155.972 305.881 C 155.985 305.494,157.520 298.196,159.211 290.483 C 160.301 285.516,160.832 282.870,161.025 281.460 C 161.129 280.696,161.305 279.734,161.415 279.323 C 161.526 278.911,161.799 277.705,162.022 276.641 C 162.245 275.578,162.707 273.425,163.050 271.858 C 163.393 270.290,164.092 267.084,164.605 264.733 C 165.117 262.382,165.530 260.160,165.523 259.796 C 165.515 259.433,165.597 259.135,165.706 259.135 C 165.814 259.135,165.903 258.833,165.903 258.463 C 165.903 258.094,166.364 255.689,166.928 253.120 C 168.527 245.824,168.934 243.945,169.474 241.341 C 169.750 240.008,170.078 238.542,170.202 238.084 C 170.325 237.627,170.422 236.908,170.417 236.489 C 170.412 236.069,170.493 235.725,170.598 235.725 C 170.703 235.725,170.789 235.444,170.789 235.101 C 170.789 234.485,171.412 231.490,173.857 220.356 C 174.546 217.221,175.156 214.176,175.213 213.588 C 175.271 213.000,175.398 212.519,175.496 212.519 C 175.594 212.519,175.675 212.176,175.675 211.756 C 175.675 211.336,176.229 208.473,176.906 205.394 C 177.582 202.316,178.359 198.743,178.631 197.455 C 178.903 196.168,179.367 194.015,179.662 192.672 C 179.957 191.328,180.186 189.977,180.172 189.669 C 180.158 189.361,180.239 189.109,180.353 189.109 C 180.467 189.109,180.560 188.716,180.560 188.236 C 180.560 187.756,180.686 186.863,180.839 186.251 C 180.993 185.640,181.404 183.812,181.752 182.188 C 182.100 180.565,182.987 176.489,183.723 173.130 C 184.459 169.771,185.068 166.748,185.076 166.412 C 185.085 166.076,185.159 165.710,185.241 165.598 C 185.322 165.486,185.441 164.936,185.504 164.377 C 185.602 163.511,186.596 158.797,188.293 151.145 C 189.510 145.661,190.145 142.585,190.331 141.272 C 190.445 140.465,190.854 138.371,191.239 136.620 C 193.803 124.964,194.848 120.037,195.005 118.880 C 195.104 118.153,195.745 114.992,196.431 111.858 C 197.116 108.723,197.853 105.333,198.069 104.326 C 198.285 103.318,198.703 101.394,198.999 100.051 C 199.505 97.752,199.648 96.994,200.099 94.249 C 200.200 93.634,201.257 88.687,202.449 83.257 C 203.640 77.827,204.699 72.745,204.801 71.963 C 205.655 65.463,210.302 62.060,215.258 64.307 " stroke="none" fill="#242c8c" fill-rule="evenodd"></path><path id="path1" d="" stroke="none" fill="#282c8c" fill-rule="evenodd"></path><path id="path2" d="" stroke="none" fill="#282c8c" fill-rule="evenodd"></path><path id="path3" d="" stroke="none" fill="#282c8c" fill-rule="evenodd"></path><path id="path4" d="" stroke="none" fill="#282c8c" fill-rule="evenodd"></path></g></svg>